<svg xmlns="http://www.w3.org/2000/svg" viewBox="0 0 18 20"><defs><style>.cls-1{fill:#fff;fill-rule:evenodd;}</style></defs><title>Ресурс 1</title><g id="Слой_2" data-name="Слой 2"><g id="Слой_1-2" data-name="Слой 1"><path class="cls-1" d="M2.63,1A1.55,1.55,0,0,0,1.05,2.5v12a2.11,2.11,0,0,0,.32,1.14.71.71,0,0,0,.52.36H3.26v1H1.89a1.76,1.76,0,0,1-1.4-.81A3,3,0,0,1,0,14.5V2.5A2.57,2.57,0,0,1,2.63,0h8.42a3.39,3.39,0,0,1,1.78.47,1.61,1.61,0,0,1,.85,1.33h-1c0-.12-.08-.31-.38-.49A2.31,2.31,0,0,0,11.05,1ZM15.89,5A1,1,0,0,1,17,6V18a1,1,0,0,1-1.06,1H6.42a1,1,0,0,1-1-1V6a1,1,0,0,1,1-1Zm0-1H6.42a2.05,2.05,0,0,0-2.1,2V18a2.05,2.05,0,0,0,2.1,2h9.47A2.06,2.06,0,0,0,18,18V6A2.06,2.06,0,0,0,15.89,4ZM7.47,8h7.37V9H7.47Zm7.37,3H7.47v1h7.37ZM7.47,14h7.37v1H7.47Z"/></g></g></svg>