<svg width="22" height="22" viewBox="0 0 22 22" fill="none" xmlns="http://www.w3.org/2000/svg">
	<path d="M2 4C3.10457 4 4 3.10457 4 2C4 0.89543 3.10457 0 2 0C0.89543 0 0 0.89543 0 2C0 3.10457 0.89543 4 2 4Z" fill="white"/>
	<path d="M11 4C12.1046 4 13 3.10457 13 2C13 0.89543 12.1046 0 11 0C9.89543 0 9 0.89543 9 2C9 3.10457 9.89543 4 11 4Z" fill="white"/>
	<path d="M20 4C21.1046 4 22 3.10457 22 2C22 0.89543 21.1046 0 20 0C18.8954 0 18 0.89543 18 2C18 3.10457 18.8954 4 20 4Z" fill="white"/>
	<path d="M2 13C3.10457 13 4 12.1046 4 11C4 9.89543 3.10457 9 2 9C0.89543 9 0 9.89543 0 11C0 12.1046 0.89543 13 2 13Z" fill="white"/>
	<path d="M11 13C12.1046 13 13 12.1046 13 11C13 9.89543 12.1046 9 11 9C9.89543 9 9 9.89543 9 11C9 12.1046 9.89543 13 11 13Z" fill="white"/>
	<path d="M20 13C21.1046 13 22 12.1046 22 11C22 9.89543 21.1046 9 20 9C18.8954 9 18 9.89543 18 11C18 12.1046 18.8954 13 20 13Z" fill="white"/>
	<path d="M2 22C3.10457 22 4 21.1046 4 20C4 18.8954 3.10457 18 2 18C0.89543 18 0 18.8954 0 20C0 21.1046 0.89543 22 2 22Z" fill="white"/>
	<path d="M11 22C12.1046 22 13 21.1046 13 20C13 18.8954 12.1046 18 11 18C9.89543 18 9 18.8954 9 20C9 21.1046 9.89543 22 11 22Z" fill="white"/>
	<path d="M20 22C21.1046 22 22 21.1046 22 20C22 18.8954 21.1046 18 20 18C18.8954 18 18 18.8954 18 20C18 21.1046 18.8954 22 20 22Z" fill="white"/>
</svg>