<svg width="24" height="24" viewBox="0 0 24 24" fill="none" xmlns="http://www.w3.org/2000/svg">
<path d="M12.0083 16.2151C12.3197 16.2101 12.5707 15.9565 12.5707 15.6438C12.5707 15.6408 12.5707 15.6383 12.5707 15.6353L12.5707 5.59176L16.1634 9.18622C16.2669 9.28977 16.4093 9.35329 16.5668 9.35329C16.8823 9.35329 17.1378 9.09719 17.1378 8.78206C17.1378 8.62399 17.0738 8.48144 16.9703 8.37789L12.4032 3.80854C12.4017 3.80704 12.3992 3.80504 12.3967 3.80304L12.3957 3.80204C12.3902 3.79653 12.3842 3.79103 12.3782 3.78553C12.3707 3.77853 12.3622 3.77152 12.3542 3.76452L12.3532 3.76352C12.3492 3.76052 12.3437 3.75652 12.3382 3.75252L12.3367 3.75152C12.3292 3.74601 12.3197 3.73901 12.3097 3.73251L12.3072 3.73101C12.3022 3.72751 12.2947 3.723 12.2867 3.7185L12.2842 3.717C12.2782 3.7135 12.2697 3.7085 12.2607 3.704L12.2577 3.7025C12.2532 3.7 12.2452 3.69599 12.2372 3.69299L12.2337 3.69149C12.2287 3.68899 12.2197 3.68499 12.2107 3.68099L12.2072 3.67949C12.2017 3.67698 12.1917 3.67398 12.1817 3.67048L12.1777 3.66948C12.1737 3.66798 12.1657 3.66498 12.1577 3.66248L12.1537 3.66148C12.1482 3.65998 12.1382 3.65698 12.1282 3.65498L12.1247 3.65448C12.1197 3.65298 12.1102 3.65098 12.1012 3.64948L12.0977 3.64897C12.0922 3.64797 12.0827 3.64647 12.0732 3.64547L12.0702 3.64497C12.0632 3.64397 12.0532 3.64297 12.0432 3.64247L12.0417 3.64247C12.0327 3.64197 12.0227 3.64147 12.0122 3.64147C12.0082 3.64147 12.0027 3.64097 11.9982 3.64097C11.9937 3.64097 11.9888 3.64097 11.9838 3.64147C11.9663 3.64197 11.9498 3.64297 11.9333 3.64497L11.9358 3.64447C11.9313 3.64497 11.9288 3.64547 11.9288 3.64547L11.9323 3.64497C11.9173 3.64698 11.9053 3.64897 11.8933 3.65147L11.8968 3.65097C11.8838 3.65348 11.8748 3.65548 11.8658 3.65748L11.8698 3.65648C11.8588 3.65898 11.8513 3.66098 11.8443 3.66298L11.8483 3.66198C11.8328 3.66648 11.8213 3.66998 11.8103 3.67349L11.8143 3.67248C11.8033 3.67598 11.7968 3.67899 11.7898 3.68149L11.7933 3.67999C11.7793 3.68549 11.7693 3.68949 11.7598 3.69449L11.7633 3.69299C11.7448 3.7015 11.7308 3.7085 11.7168 3.716L11.7198 3.7145C11.7173 3.716 11.7163 3.717 11.7163 3.717L11.7183 3.7155C11.7048 3.723 11.6943 3.73001 11.6838 3.73701L11.6858 3.73551C11.6763 3.74201 11.6688 3.74651 11.6618 3.75201L11.6633 3.75102C11.6493 3.76152 11.6373 3.77103 11.6258 3.78103L11.6228 3.78403C11.6133 3.79203 11.6043 3.79953 11.5963 3.80754L7.02972 8.3764C6.92273 8.48044 6.85673 8.6255 6.85673 8.78606C6.85673 9.10169 7.11221 9.35729 7.42768 9.35729C7.43368 9.35729 7.43918 9.35729 7.44518 9.35679C7.59916 9.35229 7.73665 9.28727 7.83664 9.18472L11.4288 5.59026L11.4288 15.6343C11.4288 15.6368 11.4288 15.6393 11.4288 15.6418C11.4288 15.9575 11.6843 16.2131 11.9998 16.2131C12.0028 16.2131 12.0058 16.2131 12.0088 16.2131L12.0083 16.2151ZM19.4211 20.3575C19.4236 20.3575 19.4261 20.3575 19.4291 20.3575C19.7445 20.3575 20 20.1019 20 19.7863C20 19.4707 19.744 19.2151 19.4291 19.2151C19.4261 19.2151 19.4236 19.2151 19.4206 19.2151L4.57894 19.2151C4.57644 19.2151 4.57395 19.2151 4.57095 19.2151C4.25548 19.2151 4 19.4707 4 19.7863C4 20.1019 4.25548 20.3575 4.57095 20.3575C4.57395 20.3575 4.57645 20.3575 4.57944 20.3575L19.4211 20.3575Z" fill="white"/>
</svg>