<svg width="16" height="16" viewBox="0 0 16 16" fill="none" xmlns="http://www.w3.org/2000/svg">
<path fill-rule="evenodd" clip-rule="evenodd" d="M8.00001 0C10.4999 0 12.731 1.14936 14.1973 2.94589L15.9997 1.14396V6.28548H10.8571L12.5684 4.57358C11.525 3.18568 9.86603 2.28585 8.00022 2.28585C4.84919 2.28585 2.28642 4.84904 2.28642 7.99987H0.000976562C0.000976562 3.58207 3.58263 0 8.00001 0ZM7.99987 13.7133C11.1495 13.7133 13.7135 11.1507 13.7135 7.99986V7.99965H15.9987C15.9987 12.4177 12.4172 15.9985 7.99987 15.9985C5.49912 15.9985 3.26844 14.8504 1.80193 13.0545L0 14.8566V9.71363H5.14276L3.4321 11.4249C4.47505 12.8128 6.13219 13.7133 7.99987 13.7133Z" fill="white"/>
</svg>