<svg xmlns="http://www.w3.org/2000/svg" viewBox="0 0 24 20"><defs><style>.cls-1{fill:#fff;}</style></defs><title>telegram</title><g id="Слой_2" data-name="Слой 2"><g id="Слой_1-2" data-name="Слой 1"><path class="cls-1" d="M12.84,15.71,10.13,18.4A1.66,1.66,0,0,1,9,18.89a.68.68,0,0,1-.6-.4c-.7-2.08-1.41-4.27-2.11-6.35a.78.78,0,0,0-.4-.4c-1.61-.49-3.32-1-4.92-1.49a1.57,1.57,0,0,0-.71-.49.56.56,0,0,1-.1-.9,4.4,4.4,0,0,1,.91-.59c2-.8,4-1.59,6-2.29C12.24,4,17.36,2.11,22.38.12A1.09,1.09,0,0,1,24,1.32a13.89,13.89,0,0,1-.4,2q-1.66,7.76-3.32,15.49c-.3,1.19-1.1,1.59-2.11.8-1.7-1.29-3.41-2.49-5.12-3.78A.35.35,0,0,0,12.84,15.71ZM9,17.3H9v-.2c.1-1.19.2-2.38.3-3.47a.59.59,0,0,1,.31-.6c1.6-1.39,3.11-2.78,4.72-4.17,1.7-1.59,3.51-3.08,5.22-4.66a.76.76,0,0,0,.2-.4c-.2,0-.3-.1-.5,0l-.6.3C14.85,6.48,11,8.86,7.11,11.25c-.1,0-.1.1,0,.39.3.8.51,1.59.81,2.39C8.32,15.12,8.62,16.21,9,17.3Z"/></g></g></svg>