<svg width="24" height="24" viewBox="0 0 24 24" fill="none" xmlns="http://www.w3.org/2000/svg">
<path d="M17.0626 15.2836C17.1381 15.8949 17.2135 17.748 15.841 20C15.5614 19.9961 15.2857 19.9334 15.0319 19.8159C15.2829 19.4489 15.5064 19.0638 15.7005 18.6637C15.7262 18.6106 15.741 18.5528 15.7441 18.4939C15.7472 18.4349 15.7385 18.376 15.7185 18.3204C15.6985 18.2649 15.6676 18.2139 15.6277 18.1704C15.5878 18.127 15.5395 18.0919 15.4859 18.0673C15.4322 18.0427 15.3742 18.029 15.3152 18.0272C15.2562 18.0253 15.1974 18.0352 15.1423 18.0563C15.0872 18.0774 15.0368 18.1093 14.9942 18.1501C14.9515 18.1909 14.9174 18.2398 14.8939 18.2939C14.6935 18.6993 14.4621 19.0887 14.2019 19.4585C13.9096 19.3207 13.5898 19.1605 13.2467 18.9803C13.8147 18.3966 14.2751 17.7172 14.6068 16.9734C14.6289 16.9191 14.6401 16.8609 14.6397 16.8023C14.6392 16.7436 14.6271 16.6856 14.6041 16.6316C14.5811 16.5777 14.5476 16.5288 14.5056 16.4879C14.4636 16.4469 14.4139 16.4147 14.3593 16.3931C14.3048 16.3715 14.2465 16.361 14.1878 16.362C14.1292 16.3631 14.0713 16.3758 14.0176 16.3994C13.9639 16.423 13.9154 16.457 13.8749 16.4994C13.8344 16.5418 13.8027 16.5919 13.7817 16.6467C13.4526 17.3552 12.9967 17.9976 12.4364 18.5421C11.6227 18.091 10.7232 17.5619 9.79571 16.9912C10.5649 16.5681 11.3018 16.0886 12.0003 15.5567C12.0453 15.5197 12.0827 15.4743 12.1102 15.4229C12.1377 15.3715 12.1548 15.3152 12.1605 15.2572C12.1662 15.1992 12.1605 15.1406 12.1436 15.0849C12.1267 15.0291 12.099 14.9772 12.062 14.9321C12.0251 14.8871 11.9796 14.8497 11.9282 14.8222C11.8768 14.7947 11.8205 14.7776 11.7625 14.7719C11.7046 14.7662 11.646 14.7719 11.5902 14.7888C11.5344 14.8057 11.4825 14.8334 11.4375 14.8704C10.6442 15.4604 9.80787 15.99 8.93539 16.4549C8.41915 16.1291 7.90027 15.7948 7.38823 15.4575C9.0046 15.0247 10.512 14.2571 11.8127 13.2044L17.0626 15.2836ZM16.645 12.3119L16.3713 12.2035H16.3709L14.4104 11.4271H14.4102L14.1363 11.3186C13.9475 11.2436 13.7391 11.2335 13.5439 11.2897C13.3487 11.3459 13.1777 11.4653 13.0576 11.6292L12.4252 12.4922L17.0887 14.3393L17.2185 13.2775C17.2432 13.0758 17.2003 12.8716 17.0965 12.6968C16.9927 12.5221 16.8339 12.3867 16.645 12.3119ZM18.8045 4.36822C18.7566 4.25738 18.6769 4.16325 18.5755 4.09772C18.4741 4.03219 18.3555 3.9982 18.2348 4.00007C18.114 4.00194 17.9966 4.03957 17.8972 4.10821C17.7979 4.17685 17.7212 4.27341 17.6767 4.38567L15.15 10.7652L16.2854 11.2149L18.812 4.83536C18.8418 4.76088 18.8564 4.68123 18.8552 4.60103C18.8539 4.52083 18.8366 4.44169 18.8045 4.36822H18.8045ZM9.08904 18.2158C9.0307 18.1736 7.63767 17.1895 6.19842 17.9515C6.09441 18.0066 6.01655 18.1007 5.98196 18.2132C5.94737 18.3257 5.95888 18.4473 6.01397 18.5513C6.06906 18.6554 6.16321 18.7332 6.27571 18.7678C6.38821 18.8024 6.50984 18.7909 6.61384 18.7358C7.56048 18.2347 8.53035 18.9075 8.57164 18.937C8.66726 19.0056 8.78622 19.0334 8.90235 19.0143C8.95985 19.0048 9.01493 18.9841 9.06444 18.9534C9.11394 18.9227 9.15691 18.8825 9.19088 18.8351C9.22485 18.7878 9.24917 18.7342 9.26244 18.6775C9.2757 18.6207 9.27767 18.5619 9.26821 18.5044C9.25875 18.4469 9.23806 18.3918 9.20732 18.3423C9.17658 18.2928 9.13639 18.2499 9.08904 18.2159V18.2158ZM6.83397 17.3975C6.94173 17.3975 7.04579 17.3583 7.12675 17.2871C7.20771 17.216 7.26002 17.1179 7.27392 17.011C7.28782 16.9042 7.26237 16.7959 7.2023 16.7064C7.14224 16.617 7.05167 16.5524 6.94751 16.5248L5.55763 16.1559C5.50131 16.1409 5.4426 16.1372 5.38484 16.145C5.32708 16.1527 5.27141 16.1717 5.22101 16.201C5.17061 16.2302 5.12647 16.2691 5.0911 16.3154C5.05573 16.3617 5.02982 16.4146 5.01487 16.4709C4.99991 16.5272 4.99619 16.5859 5.00393 16.6437C5.01166 16.7014 5.0307 16.7571 5.05994 16.8075C5.08919 16.8579 5.12808 16.902 5.17439 16.9374C5.2207 16.9728 5.27352 16.9987 5.32984 17.0136L6.71969 17.3825C6.75697 17.3925 6.79539 17.3975 6.83397 17.3975Z" fill="#5D6573"/>
</svg>
