<svg width="17" height="13" viewBox="0 0 17 13" fill="none" xmlns="http://www.w3.org/2000/svg">
<g clip-path="url(#clip0)">
<path d="M4.10506 1.60098C4.12414 1.60682 4.13801 1.62083 4.15361 1.6325C5.18072 2.41176 6.20726 3.19102 7.23379 3.97028C7.60949 4.25513 7.98461 4.54057 8.36031 4.82542C8.36205 4.82659 8.3632 4.82776 8.36494 4.82892C8.41696 4.86803 8.40597 4.86803 8.45626 4.83009C9.7296 3.86404 11.0024 2.898 12.2757 1.93195C12.4144 1.82688 12.5531 1.72181 12.6913 1.61674C12.7017 1.60857 12.7109 1.59748 12.7254 1.59631C12.726 1.6255 12.7271 1.65468 12.7277 1.68387C12.7277 3.19627 12.7277 4.70868 12.7277 6.22167C12.7277 6.25085 12.7294 6.28004 12.7306 6.30922C12.7283 6.31389 12.726 6.31856 12.7231 6.32323C12.6161 6.4032 12.5092 6.482 12.4029 6.56255C11.5318 7.22332 10.6608 7.88467 9.78971 8.54543C9.34812 8.88048 8.90652 9.21554 8.46493 9.55117C8.4632 9.55234 8.46204 9.55351 8.46031 9.55467C8.40366 9.5967 8.41869 9.59729 8.36436 9.55584C8.15165 9.39532 7.93953 9.23363 7.72682 9.07253C7.15749 8.64058 6.58758 8.20863 6.01825 7.7761C5.39516 7.30329 4.7715 6.8299 4.14841 6.35709C4.13281 6.34541 4.11778 6.33374 4.10217 6.32206C4.10275 6.29463 4.10448 6.26778 4.10448 6.24035C4.10506 4.6935 4.10506 3.14724 4.10506 1.60098Z" fill="#EA4335"/>
<path d="M12.7238 6.32204C12.7261 6.31737 12.7284 6.3127 12.7313 6.30803C12.7515 6.30044 12.7671 6.28527 12.7839 6.27243C13.4908 5.73658 14.1977 5.20014 14.904 4.66371C15.249 4.40221 15.5935 4.14012 15.9386 3.87861C16.0634 3.78405 16.1854 3.68599 16.3137 3.59668C16.3201 3.61944 16.3178 3.64279 16.3178 3.66614C16.3178 6.24791 16.3178 8.82909 16.3178 11.4109C16.3178 11.9362 15.9484 12.3851 15.4369 12.482C15.3704 12.4942 15.3034 12.4995 15.2357 12.4995C14.4248 12.4989 13.6139 12.4995 12.8029 12.4989C12.7209 12.4989 12.7249 12.5082 12.7249 12.4201C12.7249 10.4221 12.7249 8.424 12.7249 6.42653C12.7249 6.39209 12.7243 6.35706 12.7238 6.32204Z" fill="#34A853"/>
<path d="M4.09931 6.32316C4.09873 6.35059 4.097 6.37744 4.097 6.40488C4.097 8.40877 4.097 10.4127 4.097 12.4166C4.097 12.5 4.097 12.5 4.01492 12.5C3.20803 12.5 2.40056 12.4994 1.59367 12.5C1.32259 12.5 1.08214 12.4148 0.878683 12.235C0.640547 12.0249 0.514542 11.7581 0.505872 11.4371C0.505294 11.4254 0.505872 11.4137 0.505872 11.4021C0.505872 8.82846 0.505872 6.25428 0.505872 3.68068C0.505872 3.65383 0.508184 3.6264 0.508762 3.59955C0.523212 3.60947 0.537662 3.61823 0.551534 3.62873C0.731293 3.76532 0.911052 3.9025 1.09139 4.0385C1.96995 4.7051 2.84909 5.37171 3.72766 6.03831C3.85193 6.13228 3.97562 6.22801 4.09931 6.32316Z" fill="#4285F4"/>
<path d="M4.09891 6.32329C3.97464 6.22814 3.85153 6.13241 3.72668 6.03785C2.84812 5.37125 1.96955 4.70465 1.09041 4.03804C0.910653 3.90145 0.731473 3.76487 0.551136 3.62828C0.537264 3.61777 0.522814 3.60901 0.508364 3.59909C0.49796 3.57924 0.500272 3.55765 0.500272 3.53605C0.500272 3.07316 0.496804 2.61028 0.501428 2.14739C0.506052 1.67575 0.673673 1.27065 1.01296 0.944358C1.25688 0.709705 1.54819 0.567279 1.8817 0.51883C2.33543 0.452871 2.74408 0.56436 3.10937 0.841624C3.42496 1.08095 3.74055 1.32027 4.05614 1.55959C4.0729 1.57243 4.09198 1.58294 4.10354 1.60104C4.10354 3.1473 4.10354 4.69355 4.10354 6.2404C4.10354 6.26783 4.10238 6.29468 4.10122 6.32212C4.1018 6.32153 4.09891 6.32329 4.09891 6.32329Z" fill="#C5221F"/>
<path d="M16.3145 3.59731C16.1861 3.68661 16.0636 3.78468 15.9393 3.87924C15.5943 4.14074 15.2492 4.40225 14.9047 4.66434C14.1978 5.20077 13.4915 5.73662 12.7846 6.27305C12.7678 6.28589 12.7522 6.30107 12.732 6.30866C12.7309 6.27947 12.7291 6.25029 12.7291 6.2211C12.7291 4.7087 12.7291 3.19629 12.7291 1.68331C12.7291 1.65412 12.728 1.62494 12.7268 1.59575C12.7673 1.55431 12.8158 1.5222 12.8621 1.48718C13.154 1.26478 13.4464 1.04297 13.7395 0.822328C14.0181 0.612191 14.3342 0.504204 14.6799 0.500118C15.0903 0.495448 15.455 0.629702 15.7648 0.903464C16.0567 1.16088 16.2318 1.48601 16.2989 1.87126C16.3145 1.9594 16.3185 2.04871 16.3185 2.1386C16.3185 2.60791 16.3185 3.07663 16.3179 3.54594C16.3185 3.56287 16.3156 3.58038 16.3145 3.59731Z" fill="#FBBC04"/>
</g>
<defs>
<clipPath id="clip0">
<rect width="15.8182" height="12" fill="white" transform="translate(0.5 0.5)"/>
</clipPath>
</defs>
</svg>
