<svg width="24" height="24" viewBox="0 0 24 24" fill="none" xmlns="http://www.w3.org/2000/svg">
<path fill-rule="evenodd" clip-rule="evenodd" d="M6.17077 4.87C6.52418 4.87 6.87087 5.01474 7.12331 5.26381L14.2291 12.3759C14.6922 12.1436 15.1945 12.003 15.7103 11.9598L15.7103 13.6478C15.439 13.6865 15.176 13.7696 14.9354 13.9006L14.8513 13.9477C14.6796 14.0453 14.5214 14.1699 14.3801 14.3112C14.2118 14.4795 14.0704 14.668 13.9627 14.8767C13.835 15.1189 13.7554 15.3745 13.7168 15.6329H12.0175C12.056 15.1867 12.1741 14.7436 12.365 14.319L5.21822 7.17227C4.69652 6.64381 4.69652 5.79224 5.21822 5.26718C5.47403 5.01138 5.81062 4.87 6.17077 4.87ZM4.02934 8.83495C3.96538 8.89893 3.92834 8.98644 3.92834 9.07392C3.92834 9.1648 3.96538 9.24895 4.02934 9.31292L4.97851 10.2654C5.10639 10.39 5.32855 10.39 5.45646 10.2654L5.69542 10.0265L6.17001 10.5011L5.93103 10.74C5.86708 10.804 5.83343 10.8882 5.83343 10.979C5.83343 11.0666 5.86708 11.154 5.93103 11.218L6.88357 12.1672C6.95089 12.2345 7.03504 12.2681 7.12256 12.2681C7.2067 12.2681 7.2942 12.2345 7.35815 12.1672L8.3093 11.216L4.9798 7.88642L4.02934 8.83495ZM18.3742 15.6329H20.0702C19.9887 14.6818 19.5829 13.7996 18.903 13.1197C18.2185 12.4383 17.3337 12.0323 16.3826 11.9546V13.6476C16.8829 13.719 17.3472 13.947 17.7114 14.3112C18.0742 14.674 18.3018 15.1339 18.3742 15.6329ZM18.377 16.3061C18.308 16.8104 18.0793 17.2784 17.7114 17.6434C17.3477 18.0072 16.884 18.235 16.3826 18.3067V19.9999C17.3331 19.9214 18.2193 19.5155 18.903 18.8349C19.588 18.1498 19.9943 17.2613 20.0715 16.3061H18.377ZM12.0173 16.3061H13.7129C13.7825 16.7987 14.0076 17.2693 14.38 17.6434C14.7468 18.0074 15.2092 18.2354 15.7103 18.3068V19.9999C14.7593 19.9218 13.8725 19.5159 13.1885 18.8349C12.4908 18.1335 12.0933 17.2354 12.0173 16.3061Z" fill="#5D6573"/>
</svg>
