<svg width="24" height="24" viewBox="0 0 24 24" fill="none" xmlns="http://www.w3.org/2000/svg">
<path d="M5.71429 6C4.76267 6 4 6.8433 4 7.84376L4 16.15C4 17.1505 4.76267 18 5.71429 18H18.2857C19.2373 18 20 17.1505 20 16.15V7.84376C20 6.8433 19.2373 6 18.2857 6L5.71429 6ZM5.79762 7.2L18.2083 7.2L12.3393 13.05C12.1257 13.2629 11.8868 13.2632 11.6726 13.05L5.79762 7.2ZM5.14286 8.2L9.03571 12.075L5.14286 16.15L5.14286 8.2ZM18.8571 8.2V16.15L14.9762 12.0688L18.8571 8.2ZM14.1548 12.8938L17.8631 16.8H6.14286L9.86309 12.9L10.8869 13.9188C11.5075 14.5364 12.5045 14.5374 13.125 13.9188L14.1548 12.8938Z" fill="#5D6573"/>
</svg>
