<svg width="24" height="24" viewBox="0 0 24 24" fill="none" xmlns="http://www.w3.org/2000/svg">
<path fill-rule="evenodd" clip-rule="evenodd" d="M4.15105 12.4026C4.29306 12.5714 7.68383 16.4445 12 16.4445C16.3161 16.4445 19.7069 12.5714 19.8489 12.4026C19.9466 12.289 20 12.1468 20 12C20 11.8532 19.9466 11.711 19.8489 11.5975C19.7069 11.4318 16.3161 7.55554 12 7.55554C7.68383 7.55554 4.29306 11.4318 4.15105 11.5975C4.05334 11.711 3.99994 11.8532 3.99994 12C3.99994 12.1468 4.05334 12.289 4.15105 12.4026ZM12 15.1746C9.07387 15.1746 6.50913 12.9346 5.56577 12C6.50713 11.0635 9.07387 8.82539 12 8.82539C14.9261 8.82539 17.4908 11.0654 18.4342 12C17.4928 12.9365 14.9261 15.1746 12 15.1746ZM10.52 14.1116C10.9585 14.3907 11.4741 14.5397 12.0015 14.5397C12.7088 14.5397 13.3871 14.2721 13.8872 13.7958C14.3873 13.3195 14.6683 12.6735 14.6683 12C14.6683 11.4977 14.5119 11.0066 14.2189 10.589C13.9258 10.1713 13.5094 9.84582 13.0221 9.65359C12.5348 9.46137 11.9986 9.41108 11.4813 9.50907C10.964 9.60707 10.4888 9.84895 10.1159 10.2041C9.74292 10.5593 9.48894 11.0118 9.38604 11.5045C9.28314 11.9972 9.33595 12.5078 9.53779 12.9719C9.73963 13.4359 10.0814 13.8326 10.52 14.1116ZM11.2608 10.9441C11.48 10.8046 11.7378 10.7301 12.0015 10.7301C12.3552 10.7301 12.6943 10.8639 12.9444 11.1021C13.1944 11.3402 13.3349 11.6632 13.3349 12C13.3349 12.2511 13.2567 12.4966 13.1102 12.7055C12.9637 12.9143 12.7555 13.077 12.5118 13.1732C12.2682 13.2693 12.0001 13.2944 11.7414 13.2454C11.4828 13.1964 11.2452 13.0755 11.0587 12.8979C10.8722 12.7203 10.7452 12.494 10.6938 12.2477C10.6423 12.0014 10.6688 11.7461 10.7697 11.514C10.8706 11.282 11.0415 11.0837 11.2608 10.9441Z" fill="white"/>
</svg>
