<svg width="87" height="40" viewBox="0 0 87 40" fill="none" xmlns="http://www.w3.org/2000/svg">
<path d="M0.611328 21.381V17.7372H3.3216V4.00517H0.611328V0.36137H10.6092V4.00517H7.89894V17.7372H10.6092V21.381H0.611328Z" fill="white"/>
<path d="M18.7292 11.4434L16.7115 7.22738H16.6212V21.381H12.3149V0.36137H17.3138L23.0656 10.299L25.0833 14.515H25.1736V0.36137H29.4799V21.381H24.481L18.7292 11.4434Z" fill="white"/>
<path d="M31.9984 0.36137H42.2071C43.9537 0.36137 45.3089 0.853233 46.2725 1.83696C47.2562 2.82069 47.7481 4.12563 47.7481 5.75179C47.7481 6.55483 47.6377 7.23742 47.4169 7.79955C47.2161 8.36168 46.935 8.82343 46.5737 9.18479C46.2324 9.54616 45.8208 9.81719 45.339 9.99788C44.8772 10.1585 44.3753 10.2488 43.8333 10.2689V10.4496C44.3352 10.4496 44.8572 10.5399 45.3992 10.7206C45.9613 10.9013 46.4733 11.1924 46.935 11.5939C47.3968 11.9754 47.7782 12.4773 48.0794 13.0996C48.4006 13.722 48.5612 14.4849 48.5612 15.3883C48.5612 16.2114 48.4207 16.9944 48.1396 17.7372C47.8786 18.4599 47.5072 19.0923 47.0254 19.6344C46.5435 20.1764 45.9714 20.6081 45.3089 20.9293C44.6464 21.2304 43.9236 21.381 43.1406 21.381H31.9984V0.36137ZM36.5758 17.5264H41.8457C42.448 17.5264 42.9198 17.3658 43.2611 17.0446C43.6225 16.7033 43.8032 16.2315 43.8032 15.6292V14.6053C43.8032 14.003 43.6225 13.5413 43.2611 13.2201C42.9198 12.8788 42.448 12.7081 41.8457 12.7081H36.5758V17.5264ZM36.5758 8.974H41.123C41.7253 8.974 42.1971 8.80335 42.5384 8.46206C42.8797 8.12076 43.0503 7.64898 43.0503 7.0467V6.14327C43.0503 5.54099 42.8797 5.0692 42.5384 4.72791C42.1971 4.38662 41.7253 4.21597 41.123 4.21597H36.5758V8.974Z" fill="white"/>
<path d="M58.4083 21.7424C57.023 21.7424 55.7582 21.5115 54.6139 21.0497C53.4695 20.588 52.4959 19.9054 51.6928 19.002C50.8898 18.0785 50.2674 16.9442 49.8257 15.5991C49.3841 14.2339 49.1632 12.658 49.1632 10.8712C49.1632 9.08441 49.3841 7.51848 49.8257 6.17339C50.2674 4.80822 50.8898 3.67392 51.6928 2.7705C52.4959 1.847 53.4695 1.15437 54.6139 0.692624C55.7582 0.230875 57.023 0 58.4083 0C59.7935 0 61.0583 0.230875 62.2026 0.692624C63.347 1.15437 64.3207 1.847 65.1237 2.7705C65.9267 3.67392 66.5491 4.80822 66.9908 6.17339C67.4324 7.51848 67.6533 9.08441 67.6533 10.8712C67.6533 12.658 67.4324 14.2339 66.9908 15.5991C66.5491 16.9442 65.9267 18.0785 65.1237 19.002C64.3207 19.9054 63.347 20.588 62.2026 21.0497C61.0583 21.5115 59.7935 21.7424 58.4083 21.7424ZM58.4083 17.677C59.7935 17.677 60.8676 17.2253 61.6305 16.3218C62.4134 15.4184 62.8049 14.1235 62.8049 12.4371V9.30525C62.8049 7.61886 62.4134 6.32396 61.6305 5.42053C60.8676 4.51711 59.7935 4.0654 58.4083 4.0654C57.023 4.0654 55.9389 4.51711 55.1559 5.42053C54.393 6.32396 54.0116 7.61886 54.0116 9.30525V12.4371C54.0116 14.1235 54.393 15.4184 55.1559 16.3218C55.9389 17.2253 57.023 17.677 58.4083 17.677Z" fill="white"/>
<path d="M85.9203 21.381H80.6202L76.073 13.6417H75.9826L71.5559 21.381H66.6172L73.3627 10.5098L66.9484 0.36137H72.2786L76.3741 7.46829H76.4645L80.6202 0.36137H85.5589L79.0844 10.6002L85.9203 21.381Z" fill="white"/>
<path d="M3.75135 40V38.5889C2.87948 38.5315 2.13953 38.3193 1.53152 37.9522C0.93497 37.5736 0.424465 37.1033 0 36.5411L1.01527 35.6291C1.38238 36.1224 1.7839 36.5182 2.21984 36.8165C2.66725 37.1033 3.18349 37.2868 3.76856 37.3671V32.9447C2.58694 32.6808 1.7208 32.2965 1.17015 31.7917C0.630962 31.2755 0.361369 30.57 0.361369 29.6751C0.361369 29.2163 0.441673 28.809 0.602282 28.4534C0.774362 28.0863 1.00954 27.7708 1.30781 27.5069C1.60608 27.2431 1.96172 27.0366 2.37471 26.8874C2.7877 26.7268 3.24658 26.6236 3.75135 26.5777V25.1666H4.81825V26.5605C5.59835 26.6293 6.26946 26.8301 6.83159 27.1628C7.4052 27.484 7.89849 27.9314 8.31149 28.505L7.2618 29.2966C6.975 28.895 6.63083 28.5681 6.22931 28.3157C5.82779 28.0518 5.3517 27.8798 4.80105 27.7995V31.8261L4.95592 31.8606C6.14901 32.1244 7.01515 32.5145 7.55433 33.0307C8.10499 33.5355 8.38032 34.241 8.38032 35.1473C8.38032 36.1339 8.0591 36.9312 7.41667 37.5392C6.78571 38.1358 5.91957 38.4857 4.81825 38.5889V40H3.75135ZM7.02088 35.2333C7.02088 34.6483 6.8488 34.2009 6.50464 33.8911C6.17195 33.5814 5.60409 33.329 4.80105 33.134V37.3671C5.48937 37.2754 6.02855 37.0459 6.4186 36.6788C6.82012 36.3002 7.02088 35.8184 7.02088 35.2333ZM1.7208 29.5719C1.7208 30.157 1.88715 30.5986 2.21984 30.8969C2.564 31.1837 3.08024 31.4189 3.76856 31.6024V27.7995C3.14907 27.8798 2.65004 28.0691 2.27146 28.3673C1.90436 28.6656 1.7208 29.0671 1.7208 29.5719Z" fill="url(#paint0_linear)"/>
<path d="M15.6362 38.5889V26.5777H22.9668V27.8511H17.0817V31.8778H22.6227V33.1512H17.0817V37.3155H22.9668V38.5889H15.6362Z" fill="url(#paint1_linear)"/>
<path d="M33.223 31.2583L31.7775 28.591H31.7259V38.5889H30.3148V26.5777H31.984L36.372 33.9083L37.8175 36.5756H37.8691V26.5777H39.2802V38.5889H37.611L33.223 31.2583Z" fill="url(#paint2_linear)"/>
<path d="M47.1276 26.5777H51.1543C51.9 26.5777 52.5768 26.7039 53.1848 26.9563C53.7928 27.2086 54.3091 27.5872 54.7336 28.092C55.1695 28.5853 55.5022 29.2105 55.7316 29.9677C55.9611 30.7134 56.0758 31.5852 56.0758 32.5833C56.0758 33.5814 55.9611 34.459 55.7316 35.2161C55.5022 35.9618 55.1695 36.587 54.7336 37.0918C54.3091 37.5851 53.7928 37.9579 53.1848 38.2103C52.5768 38.4627 51.9 38.5889 51.1543 38.5889H47.1276V26.5777ZM51.1543 37.3155C51.6476 37.3155 52.1007 37.2352 52.5137 37.0746C52.9267 36.9025 53.2823 36.6559 53.5806 36.3347C53.8789 36.0134 54.1083 35.6234 54.2689 35.1645C54.441 34.6941 54.5271 34.1607 54.5271 33.5642V31.6024C54.5271 31.0059 54.441 30.4782 54.2689 30.0193C54.1083 29.5489 53.8789 29.1532 53.5806 28.8319C53.2823 28.5107 52.9267 28.2698 52.5137 28.1092C52.1007 27.9371 51.6476 27.8511 51.1543 27.8511H48.5731V37.3155H51.1543Z" fill="url(#paint3_linear)"/>
<path d="M63.3186 38.5889V26.5777H70.6492V27.8511H64.7641V31.8778H70.3051V33.1512H64.7641V37.3155H70.6492V38.5889H63.3186Z" fill="url(#paint4_linear)"/>
<path d="M79.4427 38.5889H77.9972V26.5777H82.7811C83.8365 26.5777 84.6567 26.8702 85.2418 27.4553C85.8383 28.0404 86.1366 28.8836 86.1366 29.9849C86.1366 30.8682 85.9301 31.5967 85.5171 32.1703C85.1156 32.7324 84.5191 33.1053 83.7275 33.2888L86.4808 38.5889H84.846L82.2476 33.4265H79.4427V38.5889ZM82.7811 32.1875C83.3547 32.1875 83.7963 32.0384 84.1061 31.7401C84.4273 31.4418 84.5879 31.0174 84.5879 30.4667V29.5719C84.5879 29.0212 84.4273 28.5968 84.1061 28.2985C83.7963 28.0002 83.3547 27.8511 82.7811 27.8511H79.4427V32.1875H82.7811Z" fill="url(#paint5_linear)"/>
<defs>
<linearGradient id="paint0_linear" x1="86.4808" y1="25.1666" x2="20.9875" y2="70.3926" gradientUnits="userSpaceOnUse">
<stop stop-color="#D045AE"/>
<stop offset="1" stop-color="#473CC2"/>
</linearGradient>
<linearGradient id="paint1_linear" x1="86.4808" y1="25.1666" x2="20.9875" y2="70.3926" gradientUnits="userSpaceOnUse">
<stop stop-color="#D045AE"/>
<stop offset="1" stop-color="#473CC2"/>
</linearGradient>
<linearGradient id="paint2_linear" x1="86.4808" y1="25.1666" x2="20.9875" y2="70.3926" gradientUnits="userSpaceOnUse">
<stop stop-color="#D045AE"/>
<stop offset="1" stop-color="#473CC2"/>
</linearGradient>
<linearGradient id="paint3_linear" x1="86.4808" y1="25.1666" x2="20.9875" y2="70.3926" gradientUnits="userSpaceOnUse">
<stop stop-color="#D045AE"/>
<stop offset="1" stop-color="#473CC2"/>
</linearGradient>
<linearGradient id="paint4_linear" x1="86.4808" y1="25.1666" x2="20.9875" y2="70.3926" gradientUnits="userSpaceOnUse">
<stop stop-color="#D045AE"/>
<stop offset="1" stop-color="#473CC2"/>
</linearGradient>
<linearGradient id="paint5_linear" x1="86.4808" y1="25.1666" x2="20.9875" y2="70.3926" gradientUnits="userSpaceOnUse">
<stop stop-color="#D045AE"/>
<stop offset="1" stop-color="#473CC2"/>
</linearGradient>
</defs>
</svg>
