<svg width="13" height="13" viewBox="0 0 13 13" fill="none" xmlns="http://www.w3.org/2000/svg">
<path d="M0.75 2.42857V2.53919L0.781936 2.6451L1.84811 6.18081L1.96051 6.55357L1.84811 6.92633L0.781936 10.462L0.75 10.568V10.6786C0.75 10.6801 0.749965 10.6824 0.749919 10.6854C0.749181 10.7336 0.745695 10.9612 0.843704 11.1828C0.904394 11.32 1.0112 11.4761 1.1898 11.5928C1.36823 11.7093 1.56238 11.75 1.73693 11.75H1.73762H1.73831H1.739H1.73968H1.74036H1.74104H1.74172H1.74239H1.74307H1.74373H1.7444H1.74506H1.74573H1.74638H1.74704H1.74769H1.74834H1.74899H1.74964H1.75028H1.75092H1.75156H1.7522H1.75283H1.75346H1.75409H1.75471H1.75534H1.75596H1.75658H1.75719H1.75781H1.75842H1.75903H1.75964H1.76024H1.76084H1.76144H1.76204H1.76264H1.76323H1.76382H1.76441H1.76499H1.76558H1.76616H1.76674H1.76732H1.76789H1.76846H1.76904H1.7696H1.77017H1.77073H1.7713H1.77186H1.77241H1.77297H1.77352H1.77407H1.77462H1.77517H1.77572H1.77626H1.7768H1.77734H1.77788H1.77841H1.77895H1.77948H1.78001H1.78053H1.78106H1.78158H1.7821H1.78262H1.78314H1.78366H1.78417H1.78468H1.78519H1.7857H1.78621H1.78671H1.78722H1.78772H1.78822H1.78871H1.78921H1.7897H1.7902H1.79069H1.79117H1.79166H1.79215H1.79263H1.79311H1.79359H1.79407H1.79455H1.79502H1.7955H1.79597H1.79644H1.79691H1.79737H1.79784H1.7983H1.79877H1.79923H1.79968H1.80014H1.8006H1.80105H1.80151H1.80196H1.80241H1.80286H1.8033H1.80375H1.80419H1.80464H1.80508H1.80552H1.80596H1.80639H1.80683H1.80726H1.8077H1.80813H1.80856H1.80899H1.80942H1.80984H1.81027H1.81069H1.81112H1.81154H1.81196H1.81238H1.81279H1.81321H1.81363H1.81404H1.81445H1.81486H1.81527H1.81568H1.81609H1.8165H1.81691H1.81731H1.81771H1.81812H1.81852H1.81892H1.81932H1.81972H1.82011H1.82051H1.82091H1.8213H1.82169H1.82209H1.82248H1.82287H1.82326H1.82365H1.82403H1.82442H1.82481H1.82519H1.82557H1.82596H1.82634H1.82672H1.8271H1.82748H1.82786H1.82824H1.82862H1.82899H1.82937H1.82974H1.83012H1.83049H1.83086H1.83124H1.83161H1.83198H1.83235H1.83272H1.83308H1.83345H1.83382H1.83419H1.83455H1.83492H1.83528H1.83564H1.83601H1.83637H1.83673H1.83709H1.83746H1.83782H1.83818H1.83854H1.8389H1.83925H1.83961H1.83997H1.84033H1.84068H1.84104H1.84139H1.84175H1.84211H1.84246H1.84281H1.84317H1.84352H1.84387H1.84423H1.84458H1.84493H1.84528H1.84563H1.84598H1.84634H1.84669H1.84704H1.84739H1.84774H1.84809H1.84844H1.84878H1.84913H1.84948H1.84983H1.85018H1.85053H1.85087H1.85122H1.85157H1.85192H1.85227H1.85261H1.85296H1.85331H1.85365H1.854H1.85435H1.8547H1.85504H1.85539H1.85574H1.85608H1.85643H1.85678H1.85713H1.85747H1.85782H1.85817H1.85852H1.85886H1.85921H1.85956H1.85991H1.86025H1.8606H1.86095H1.8613H1.86165H1.862H1.86235H1.8627H1.86304H1.86339H1.86374H1.86409H1.86444H1.8648H1.86515H1.8655H1.86585H1.8662H1.86655H1.86691H1.86726H1.86761H1.86797H1.86832H1.86868H1.86903H1.86939H1.86974H1.8701H1.87045H1.87081H1.87117H1.87153H1.87189H1.87224H1.8726H1.87296H1.87332H1.87369H1.87405H1.87441H1.87477H1.87514H1.8755H1.87586H1.87623H1.8766H1.87696H1.87733H1.8777H1.87807H1.87843H1.8788H1.87917H1.87955H1.87992H1.88029H1.88066H1.88104H1.88141H1.88179H1.88216H1.88254H1.88292H1.8833H1.88368H1.88406H1.88444H1.88482H1.88521H1.88559H1.88597H1.88636H1.88675H1.88713H1.88752H1.88791H1.8883H1.88869H1.88909H1.88948H1.88987H1.89027H1.89067H1.89106H1.89146H1.89186H1.89226H1.89266H1.89307H1.89347H1.89388H1.89428H1.89469H1.8951H1.89551H1.89592H1.89633H1.89674H1.89716H1.89757H1.89799H1.8984H1.89882H1.89924H1.89967H1.90009H1.90051H1.90094H1.90136H1.90179H1.90222H1.90265H1.90308H1.90352H1.90395H1.90439H1.90482H1.90526H1.9057H1.90614H1.90659H1.90703H1.90748H1.90792H1.90837H1.90882H1.90927H1.90973H1.91018H1.91064H1.9111H1.91155H1.91202H1.91248H1.91294H1.91341H1.91387H1.91434H1.91481H1.91528H1.91576H1.91623H1.91671H1.91719H1.91767H1.91815H1.91863H1.91912H1.91961H1.92009H1.92059H1.92108H1.92157H1.92207H1.92256H1.92306H1.92356H1.92407H1.92457H1.92508H1.92559H1.9261H1.92661H1.92712H1.92764H1.92816H1.92868H1.9292H1.92972H1.93025H1.93077H1.9313H1.93183H1.93237H1.9329H1.93344H1.93398H1.93452H1.93506H1.93561H1.93616H1.93671H1.93726H1.93781H1.93837H1.93892H1.93948H1.94005H1.94061H1.94118H1.94175H1.94232H1.94289H1.94346H1.94404H1.94462H1.9452H1.94579H1.94637H1.94696H1.94755H1.94815H1.94874H1.94934H1.94994H1.95054H1.95114H1.95175H1.95236H1.95297H1.95359H1.9542H1.95482H1.95544H1.95607H1.95669H1.95732H1.95795H1.95858H1.95922H1.95986H1.9605H1.96114H1.96179H1.96244H1.96309H1.96374H1.9644H1.96506H1.96572H1.96638H1.96705H1.96772H1.96839H1.96906H1.96974H1.97042H1.9711H1.97178H1.97247H1.97316H1.97385H2.13742L2.28613 11.6819L11.6447 7.39619L11.7498 7.34806L11.8356 7.27053C11.8376 7.26867 11.8405 7.26617 11.844 7.26304C11.8917 7.22122 12.0676 7.06716 12.1665 6.84353C12.3099 6.51925 12.2552 6.19044 12.1073 5.92285L11.4171 6.10094L11.6421 5.60957C11.7084 5.62761 11.7569 5.65033 11.7814 5.66264C11.8576 5.70093 11.9095 5.74435 11.9193 5.75251L11.9202 5.75328C11.9336 5.76436 11.9449 5.77477 11.9392 5.76966C11.9387 5.76916 11.938 5.76857 11.9373 5.7679C11.9194 5.75159 11.8465 5.68532 11.7377 5.63062C11.681 5.60216 11.6202 5.57925 11.5558 5.56307L2.28613 1.3181L2.13742 1.25H1.97385H1.97316H1.97247H1.97178H1.9711H1.97042H1.96974H1.96906H1.96839H1.96772H1.96705H1.96638H1.96572H1.96506H1.9644H1.96374H1.96309H1.96244H1.96179H1.96115H1.96051H1.95987H1.95923H1.9586H1.95796H1.95733H1.95671H1.95608H1.95546H1.95484H1.95423H1.95361H1.953H1.95239H1.95179H1.95118H1.95058H1.94998H1.94939H1.94879H1.9482H1.94761H1.94703H1.94644H1.94586H1.94528H1.94471H1.94413H1.94356H1.94299H1.94243H1.94186H1.9413H1.94074H1.94019H1.93963H1.93908H1.93853H1.93798H1.93744H1.9369H1.93636H1.93582H1.93528H1.93475H1.93422H1.93369H1.93317H1.93264H1.93212H1.93161H1.93109H1.93058H1.93006H1.92955H1.92905H1.92854H1.92804H1.92754H1.92704H1.92655H1.92606H1.92556H1.92508H1.92459H1.92411H1.92362H1.92315H1.92267H1.92219H1.92172H1.92125H1.92078H1.92032H1.91985H1.91939H1.91893H1.91847H1.91802H1.91757H1.91712H1.91667H1.91622H1.91578H1.91534H1.9149H1.91446H1.91402H1.91359H1.91316H1.91273H1.9123H1.91188H1.91146H1.91104H1.91062H1.9102H1.90979H1.90937H1.90896H1.90856H1.90815H1.90775H1.90734H1.90695H1.90655H1.90615H1.90576H1.90537H1.90498H1.90459H1.9042H1.90382H1.90344H1.90306H1.90268H1.90231H1.90193H1.90156H1.90119H1.90083H1.90046H1.9001H1.89974H1.89938H1.89902H1.89866H1.89831H1.89796H1.89761H1.89726H1.89691H1.89657H1.89623H1.89589H1.89555H1.89521H1.89488H1.89455H1.89421H1.89389H1.89356H1.89323H1.89291H1.89259H1.89227H1.89195H1.89163H1.89132H1.89101H1.8907H1.89039H1.89008H1.88978H1.88947H1.88917H1.88887H1.88857H1.88828H1.88798H1.88769H1.8874H1.88711H1.88682H1.88654H1.88625H1.88597H1.88569H1.88541H1.88513H1.88486H1.88458H1.88431H1.88404H1.88377H1.88351H1.88324H1.88298H1.88272H1.88246H1.8822H1.88194H1.88168H1.88143H1.88118H1.88093H1.88068H1.88043H1.88019H1.87994H1.8797H1.87946H1.87922H1.87898H1.87875H1.87851H1.87828H1.87805H1.87782H1.87759H1.87737H1.87714H1.87692H1.87669H1.87647H1.87626H1.87604H1.87582H1.87561H1.8754H1.87518H1.87497H1.87477H1.87456H1.87435H1.87415H1.87395H1.87375H1.87355H1.87335H1.87315H1.87296H1.87276H1.87257H1.87238H1.87219H1.872H1.87182H1.87163H1.87145H1.87126H1.87108H1.8709H1.87073H1.87055H1.87037H1.8702H1.87003H1.86985H1.86968H1.86951H1.86935H1.86918H1.86902H1.86885H1.86869H1.86853H1.86837H1.86821H1.86806H1.8679H1.86774H1.86759H1.86744H1.86729H1.86714H1.86699H1.86684H1.8667H1.86655H1.86641H1.86627H1.86613H1.86599H1.86585H1.86571H1.86558H1.86544H1.86531H1.86518H1.86505H1.86492H1.86479H1.86466H1.86453H1.86441H1.86429H1.86416H1.86404H1.86392H1.8638H1.86368H1.86356H1.86345H1.86333H1.86322H1.86311H1.86299H1.86288H1.86277H1.86267H1.86256H1.86245H1.86235H1.86224H1.86214H1.86204H1.86193H1.86183H1.86174H1.86164H1.86154H1.86144H1.86135H1.86126H1.86116H1.86107H1.86098H1.86089H1.8608H1.86071H1.86062H1.86054H1.86045H1.86037H1.86028H1.8602H1.86012H1.86004H1.85996H1.85988H1.8598H1.85973H1.85965H1.85958H1.8595H1.85943H1.85936H1.85928H1.85921H1.85914H1.85907H1.85901H1.85894H1.85887H1.85881H1.85874H1.85868H1.85861H1.85855H1.85849H1.85843H1.85837H1.85831H1.85825H1.85819H1.85814H1.85808H1.85803H1.85797H1.85792H1.85786H1.85781H1.85776H1.85771H1.85766H1.85761H1.85756H1.85751H1.85747H1.85742H1.85737H1.85733H1.85729H1.85724H1.8572H1.85716H1.85711H1.85707H1.85703H1.85699H1.85695H1.85692H1.85688H1.85684H1.8568H1.85677H1.85673H1.8567H1.85666H1.85663H1.8566H1.85657H1.85653H1.8565H1.85647H1.85644H1.85641H1.85638H1.85635H1.85633H1.8563H1.85627H1.85625H1.85622H1.8562H1.85617H1.85615H1.85612H1.8561H1.85608H1.85606H1.85603H1.85601H1.85599H1.85597H1.85595H1.85593H1.85591H1.8559H1.85588H1.85586H1.85584H1.85583H1.85581H1.85579H1.85578H1.85576H1.85575H1.85573H1.85572H1.85571H1.85569H1.85568H1.85567H1.85566H1.85564H1.85563H1.85562H1.85561H1.8556H1.85559H1.85558H1.85557H1.85556H1.85555H1.85555H1.85554H1.85553H1.85552H1.85551H1.85551H1.8555H1.85549H1.85549H1.85548H1.85548H1.85547H1.85547H1.85546H1.85546H1.85545H1.85545H1.85544H1.85544H1.85544H1.85543H1.85543H1.85543H1.85542H1.85542H1.85542H1.85541H1.85541H1.85541H1.85541H1.85541H1.8554H1.8554H1.8554H1.8554H1.8554H1.8554H1.8554H1.8554H1.85539H1.85539H1.85539H1.85539H1.85539H1.85539H1.85539H1.85539C1.6389 1.25 1.33651 1.29733 1.08576 1.52412C0.820705 1.76384 0.75 2.07816 0.75 2.32143V2.32143V2.32143V2.32143V2.32143V2.32143V2.32143V2.32143V2.32143V2.32143V2.32143V2.32144V2.32144V2.32144V2.32144V2.32144V2.32144V2.32144V2.32145V2.32145V2.32145V2.32145V2.32145V2.32146V2.32146V2.32146V2.32147V2.32147V2.32147V2.32148V2.32148V2.32148V2.32149V2.32149V2.3215V2.3215V2.32151V2.32151V2.32152V2.32152V2.32153V2.32153V2.32154V2.32155V2.32155V2.32156V2.32157V2.32158V2.32158V2.32159V2.3216V2.32161V2.32162V2.32163V2.32164V2.32165V2.32166V2.32167V2.32168V2.32169V2.3217V2.32171V2.32173V2.32174V2.32175V2.32177V2.32178V2.32179V2.32181V2.32182V2.32184V2.32185V2.32187V2.32189V2.3219V2.32192V2.32194V2.32195V2.32197V2.32199V2.32201V2.32203V2.32205V2.32207V2.32209V2.32211V2.32213V2.32216V2.32218V2.3222V2.32223V2.32225V2.32228V2.3223V2.32233V2.32235V2.32238V2.32241V2.32243V2.32246V2.32249V2.32252V2.32255V2.32258V2.32261V2.32264V2.32267V2.32271V2.32274V2.32277V2.32281V2.32284V2.32288V2.32291V2.32295V2.32299V2.32303V2.32306V2.3231V2.32314V2.32318V2.32322V2.32326V2.32331V2.32335V2.32339V2.32344V2.32348V2.32353V2.32357V2.32362V2.32367V2.32371V2.32376V2.32381V2.32386V2.32391V2.32396V2.32402V2.32407V2.32412V2.32418V2.32423V2.32429V2.32434V2.3244V2.32446V2.32452V2.32458V2.32464V2.3247V2.32476V2.32482V2.32489V2.32495V2.32501V2.32508V2.32515V2.32521V2.32528V2.32535V2.32542V2.32549V2.32556V2.32563V2.32571V2.32578V2.32586V2.32593V2.32601V2.32608V2.32616V2.32624V2.32632V2.3264V2.32648V2.32657V2.32665V2.32673V2.32682V2.3269V2.32699V2.32708V2.32717V2.32726V2.32735V2.32744V2.32753V2.32763V2.32772V2.32781V2.32791V2.32801V2.32811V2.32821V2.32831V2.32841V2.32851V2.32861V2.32872V2.32882V2.32893V2.32903V2.32914V2.32925V2.32936V2.32947V2.32959V2.3297V2.32981V2.32993V2.33005V2.33016V2.33028V2.3304V2.33052V2.33064V2.33077V2.33089V2.33102V2.33114V2.33127V2.3314V2.33153V2.33166V2.33179V2.33192V2.33206V2.33219V2.33233V2.33246V2.3326V2.33274V2.33288V2.33302V2.33317V2.33331V2.33346V2.3336V2.33375V2.3339V2.33405V2.3342V2.33436V2.33451V2.33467V2.33482V2.33498V2.33514V2.3353V2.33546V2.33562V2.33579V2.33595V2.33612V2.33628V2.33645V2.33662V2.33679V2.33697V2.33714V2.33732V2.33749V2.33767V2.33785V2.33803V2.33821V2.3384V2.33858V2.33877V2.33895V2.33914V2.33933V2.33952V2.33971V2.33991V2.3401V2.3403V2.3405V2.3407V2.3409V2.3411V2.3413V2.34151V2.34171V2.34192V2.34213V2.34234V2.34255V2.34277V2.34298V2.3432V2.34342V2.34364V2.34386V2.34408V2.3443V2.34453V2.34475V2.34498V2.34521V2.34544V2.34567V2.34591V2.34614V2.34638V2.34662V2.34686V2.3471V2.34734V2.34759V2.34783V2.34808V2.34833V2.34858V2.34883V2.34909V2.34934V2.3496V2.34986V2.35012V2.35038V2.35064V2.35091V2.35117V2.35144V2.35171V2.35198V2.35225V2.35253V2.3528V2.35308V2.35336V2.35364V2.35392V2.35421V2.35449V2.35478V2.35507V2.35536V2.35565V2.35595V2.35624V2.35654V2.35684V2.35714V2.35745V2.35775V2.35806V2.35836V2.35867V2.35898V2.3593V2.35961V2.35993V2.36025V2.36057V2.36089V2.36121V2.36154V2.36186V2.36219V2.36252V2.36286V2.36319V2.36353V2.36386V2.3642V2.36454V2.36489V2.36523V2.36558V2.36593V2.36628V2.36663V2.36698V2.36734V2.3677V2.36806V2.36842V2.36878V2.36915V2.36951V2.36988V2.37025V2.37063V2.371V2.37138V2.37176V2.37214V2.37252V2.3729V2.37329V2.37368V2.37407V2.37446V2.37485V2.37525V2.37565V2.37605V2.37645V2.37685V2.37726V2.37766V2.37807V2.37848V2.3789V2.37931V2.37973V2.38015V2.38057V2.38099V2.38142V2.38185V2.38228V2.38271V2.38314V2.38358V2.38402V2.38446V2.3849V2.38534V2.38579V2.38623V2.38668V2.38714V2.38759V2.38805V2.38851V2.38897V2.38943V2.38989V2.39036V2.39083V2.3913V2.39177V2.39225V2.39273V2.39321V2.39369V2.39417V2.39466V2.39515V2.39564V2.39613V2.39662V2.39712V2.39762V2.39812V2.39862V2.39913V2.39964V2.40015V2.40066V2.40117V2.40169V2.40221V2.40273V2.40325V2.40378V2.40431V2.40484V2.40537V2.40591V2.40644V2.40698V2.40752V2.40807V2.40861V2.40916V2.40971V2.41026V2.41082V2.41138V2.41194V2.4125V2.41306V2.41363V2.4142V2.41477V2.41535V2.41592V2.4165V2.41708V2.41766V2.41825V2.41884V2.41943V2.42002V2.42062V2.42121V2.42181V2.42242V2.42302V2.42363V2.42424V2.42485V2.42546V2.42608V2.4267V2.42732V2.42794V2.42857ZM11.3325 5.59166V6.12277L11.1049 6.18149L11.0841 6.17199L11.0202 6.03239L10.8997 6.08755L10.7642 6.02547C10.8092 5.92536 10.9216 5.73521 11.17 5.63635C11.2263 5.61394 11.2807 5.59974 11.3325 5.59166Z" stroke="#5D6573" stroke-width="1.5"/>
</svg>
