<svg width="110" height="32" viewBox="0 0 110 32" fill="none" xmlns="http://www.w3.org/2000/svg">
	<path d="M40.3226 9.6V0H31.4516L27.4194 4H33.4677L20.1613 17.2L14.5161 11.6L13.3065 10.4L6.85484 4H22.5806L26.6129 0H2.82258H0V2.8V32H40.3226V14.4L36.2903 18.4V28H4.03226V6.8L10.4839 13.2L11.6935 14.4L17.3387 20L20.1613 22.8L22.9839 20L36.2903 6.8V13.6L40.3226 9.6Z" fill="url(#paint0_linear)"/>
	<path d="M86.2896 0H81.7734V19.28H86.2896V0Z" fill="#ffffff"/>
	<path d="M65.4835 0L56.8545 19.28H61.4513L63.1448 15.12H72.1771L73.8706 19.28H78.6287L69.919 0H65.4835ZM64.5964 11.76L67.6609 4.4L70.7255 11.76H64.5964Z" fill="#ffffff"/>
	<path d="M109.193 19.28L104.838 13.12C106.129 12.56 107.096 11.76 107.822 10.72C108.548 9.68 108.87 8.48 108.87 7.04C108.87 5.6 108.548 4.4 107.822 3.36C107.177 2.32 106.129 1.52 104.919 0.960002C103.629 0.400002 102.177 0.0800018 100.403 0.0800018H92.0156V19.36H96.5318V14H100.483H100.725L104.435 19.36H109.193V19.28ZM103.225 9.44C102.499 10 101.532 10.32 100.161 10.32H96.5318V3.6H100.161C101.532 3.6 102.499 3.92 103.225 4.48C103.951 5.04 104.274 5.92 104.274 6.96C104.274 8.08 103.951 8.88 103.225 9.44Z" fill="#ffffff"/>
	<path d="M108.145 29.36C108.709 29.2 109.112 28.88 109.435 28.48C109.757 28.08 109.919 27.6 109.919 26.96C109.919 26.16 109.677 25.52 109.112 25.12C108.548 24.64 107.822 24.48 106.854 24.48H104.112V32H104.677V29.52H106.854C107.096 29.52 107.338 29.52 107.58 29.44L109.354 31.92H109.999L108.145 29.36ZM106.854 29.04H104.677V24.96H106.854C107.661 24.96 108.306 25.12 108.709 25.52C109.112 25.84 109.354 26.4 109.354 27.04C109.354 27.68 109.112 28.16 108.709 28.56C108.225 28.88 107.661 29.04 106.854 29.04Z" fill="#727885"/>
	<path d="M63.7092 24.48L60.3221 30.32L56.935 24.48H56.4512V32H57.0157V25.6L60.1608 31.04H60.4028L63.6286 25.6V32H64.1125V24.48H63.7092Z" fill="#727885"/>
	<path d="M71.6123 24.48L68.1445 32H68.7091L69.6768 29.92H74.0316L74.9994 32H75.5639L72.0961 24.48H71.6123ZM69.9187 29.44L71.9349 25.12L73.951 29.44H69.9187Z" fill="#727885"/>
	<path d="M94.838 28.4H98.8702V27.92H94.838V24.96H99.3541V24.48H94.2734V32H99.5154V31.52H94.838V28.4Z" fill="#727885"/>
	<path d="M80.1612 24.48H79.5967V32H80.1612V24.48Z" fill="#727885"/>
	<path d="M85.8862 24.48H85.4023V32H90.2411V31.52H85.8862V24.48Z" fill="#727885"/>
	<defs>
		<linearGradient id="paint0_linear" x1="40.3226" y1="3.8147e-06" x2="-5.01638" y2="15.1973" gradientUnits="userSpaceOnUse">
			<stop stop-color="#D045AE"/>
			<stop offset="1" stop-color="#473CC2"/>
		</linearGradient>
	</defs>
</svg>