<svg width="136" height="40" viewBox="0 0 136 40" fill="none" xmlns="http://www.w3.org/2000/svg">
<path d="M49.8535 12V0H38.8858L33.9004 5H41.3784L24.9268 21.5L17.9473 14.5L16.4517 13L8.47519 5H27.918L32.9033 0H3.48986H0.00012207V3.5V40H49.8535V18L44.8682 23V35H4.98546V8.5L12.962 16.5L14.4576 18L21.4371 25L24.9268 28.5L28.4165 25L44.8682 8.5V17L49.8535 12Z" fill="white"/>
<path d="M106.686 0H101.103V24.1H106.686V0Z" fill="white"/>
<path d="M80.962 0L70.2933 24.1H75.9766L78.0705 18.9H89.2376L91.3315 24.1H97.2142L86.4458 0H80.962ZM79.8652 14.7L83.654 5.5L87.4429 14.7H79.8652Z" fill="white"/>
<path d="M135.003 24.1L129.619 16.4C131.214 15.7 132.411 14.7 133.308 13.4C134.205 12.1 134.604 10.6 134.604 8.80001C134.604 7.00001 134.205 5.50001 133.308 4.20001C132.51 2.90001 131.214 1.90001 129.719 1.20001C128.123 0.500006 126.329 0.100006 124.135 0.100006H113.766V24.2H119.349V17.5H124.235H124.534L129.12 24.2H135.003V24.1ZM127.625 11.8C126.727 12.5 125.531 12.9 123.836 12.9H119.349V4.50001H123.836C125.531 4.50001 126.727 4.90001 127.625 5.60001C128.522 6.30001 128.921 7.40001 128.921 8.70001C128.921 10.1 128.522 11.1 127.625 11.8Z" fill="white"/>
<path d="M133.707 36.7C134.405 36.5 134.903 36.1 135.302 35.6C135.701 35.1 135.9 34.5 135.9 33.7C135.9 32.7 135.601 31.9 134.903 31.4C134.205 30.8 133.308 30.6 132.111 30.6H128.721V40H129.419V36.9H132.111C132.411 36.9 132.71 36.9 133.009 36.8L135.202 39.9H136L133.707 36.7ZM132.111 36.3H129.419V31.2H132.111C133.109 31.2 133.906 31.4 134.405 31.9C134.903 32.3 135.202 33 135.202 33.8C135.202 34.6 134.903 35.2 134.405 35.7C133.806 36.1 133.109 36.3 132.111 36.3Z" fill="white"/>
<path d="M78.7684 30.6L74.5807 37.9L70.393 30.6H69.7948V40H70.4928V32L74.3813 38.8H74.6804L78.6687 32V40H79.2669V30.6H78.7684Z" fill="white"/>
<path d="M88.5397 30.6L84.2523 40H84.9503L86.1467 37.4H91.5309L92.7274 40H93.4253L89.138 30.6H88.5397ZM86.4459 36.8L88.9385 31.4L91.4312 36.8H86.4459Z" fill="white"/>
<path d="M117.255 35.5H122.241V34.9H117.255V31.2H122.839V30.6H116.557V40H123.038V39.4H117.255V35.5Z" fill="white"/>
<path d="M99.1086 30.6H98.4106V40H99.1086V30.6Z" fill="white"/>
<path d="M106.188 30.6H105.589V40H111.572V39.4H106.188V30.6Z" fill="white"/>
</svg>