<svg xmlns="http://www.w3.org/2000/svg" xmlns:xlink="http://www.w3.org/1999/xlink" viewBox="0 0 114.25 32"><defs><style>.cls-1{fill:url(#Безымянный_градиент);}.cls-2{fill:#727885;}.cls-3{fill:#ffffff;}</style><linearGradient id="Безымянный_градиент" x1="43.11" y1="22.69" x2="-2.23" y2="7.49" gradientTransform="matrix(1, 0, 0, -1, 0, 31)" gradientUnits="userSpaceOnUse"><stop offset="0" stop-color="#d045ae"/><stop offset="1" stop-color="#473cc2"/></linearGradient></defs><title>checkermailer-logo--gradient</title><g id="Слой_2" data-name="Слой 2"><g id="Слой_1-2" data-name="Слой 1"><path class="cls-1" d="M40.32,9.6V0H31.45l-4,4h6L20.16,17.2l-5.64-5.6-1.21-1.2L6.85,4H22.58l4-4H0V32H40.32V14.4l-4,4V28H4V6.8l6.45,6.4,1.21,1.2L17.34,20l2.82,2.8L23,20,36.29,6.8v6.8Z"/><path class="cls-2" d="M97.69,23.45a2.29,2.29,0,0,0,1.15-.8,2.12,2.12,0,0,0,.43-1.37,1.92,1.92,0,0,0-.72-1.66,2.87,2.87,0,0,0-2-.58H94.1v6.79h.5V23.59h1.94a2,2,0,0,0,.64-.07l1.58,2.24h.58Zm-1.15-.29H94.6V19.47h1.94a2.27,2.27,0,0,1,1.65.51,1.73,1.73,0,0,1,.57,1.37,1.88,1.88,0,0,1-.57,1.38A2.86,2.86,0,0,1,96.54,23.16Z"/><path class="cls-2" d="M58.12,19l-3,5.28-3-5.28h-.43v6.79h.5V20.05L55,25h.21l2.88-4.92v5.78h.43V19Z"/><path class="cls-2" d="M65.16,19l-3.09,6.79h.5L63.43,24h3.88l.86,1.88h.5L65.59,19Zm-1.51,4.48,1.79-3.9,1.8,3.9Z"/><path class="cls-2" d="M85.84,22.58h3.59v-.43H85.84V19.47h4V19H85.33v6.79H90V25.4H85.84Z"/><path class="cls-2" d="M72.77,19h-.51v6.79h.51Z"/><path class="cls-2" d="M77.87,19h-.44v6.79h4.31V25.4H77.87Z"/><path class="cls-3" d="M55.84,14.57a3.82,3.82,0,0,1-3.08-1.32,5.94,5.94,0,0,1-1.11-3.88,8,8,0,0,1,.28-2.23,4.59,4.59,0,0,1,.83-1.62,3.39,3.39,0,0,1,1.32-1,4.32,4.32,0,0,1,1.76-.34A3.87,3.87,0,0,1,58,4.75a3.82,3.82,0,0,1,1.39,1.7L58,7.2a2.44,2.44,0,0,0-.8-1.14,2.13,2.13,0,0,0-1.4-.43A2.24,2.24,0,0,0,54,6.42a3.33,3.33,0,0,0-.66,2.19v1.53A3.33,3.33,0,0,0,54,12.33a2.51,2.51,0,0,0,3.28.33,2.82,2.82,0,0,0,.84-1.21l1.3.79A4,4,0,0,1,58,14,3.73,3.73,0,0,1,55.84,14.57Z"/><path class="cls-3" d="M67.29,10H62.77V14.4H61.16v-10h1.61V8.58h4.52V4.35h1.62V14.4H67.29Z"/><path class="cls-3" d="M71.37,14.4v-10h6.39V5.79H73V8.58h4.33V10H73V13h4.77V14.4Z"/><path class="cls-3" d="M83.6,14.57a3.81,3.81,0,0,1-3.08-1.32A5.94,5.94,0,0,1,79.4,9.37a7.93,7.93,0,0,1,.29-2.23,4.59,4.59,0,0,1,.83-1.62,3.32,3.32,0,0,1,1.32-1,4.32,4.32,0,0,1,1.76-.34,3.89,3.89,0,0,1,2.17.57,3.89,3.89,0,0,1,1.39,1.7L85.8,7.2A2.44,2.44,0,0,0,85,6.06a2.15,2.15,0,0,0-1.4-.43,2.22,2.22,0,0,0-1.82.79,3.33,3.33,0,0,0-.66,2.19v1.53a3.33,3.33,0,0,0,.66,2.19,2.25,2.25,0,0,0,1.82.79,2.23,2.23,0,0,0,1.45-.46,2.75,2.75,0,0,0,.85-1.21l1.3.79A4,4,0,0,1,85.8,14,3.75,3.75,0,0,1,83.6,14.57Z"/><path class="cls-3" d="M91.9,9.71l-1.37,1.58V14.4H88.91v-10h1.62v5.1h.06L92,7.62l2.69-3.27H96.6L93,8.58l3.85,5.82H94.94Z"/><path class="cls-3" d="M98.36,14.4v-10h6.39V5.79H100V8.58h4.34V10H100V13h4.78V14.4Z"/><path class="cls-3" d="M108.45,14.4h-1.61v-10h4.3a2.75,2.75,0,0,1,2.12.82,3,3,0,0,1,.77,2.2,3.11,3.11,0,0,1-.5,1.8,2.6,2.6,0,0,1-1.44,1l2.16,4.23h-1.81l-2-4.06h-2ZM111,9a1.33,1.33,0,0,0,1-.32,1.26,1.26,0,0,0,.34-.93V7a1.21,1.21,0,0,0-.34-.92,1.3,1.3,0,0,0-1-.34h-2.58V9Z"/></g></g></svg>