<svg width="132" height="46" viewBox="0 0 132 46" fill="none" xmlns="http://www.w3.org/2000/svg">
<path d="M60 13.8V0H47.0216L41.1223 5.75H49.9712L30.5035 24.725L22.2445 16.675L20.4748 14.95L11.0359 5.75H34.0431L39.9424 0H5.13659H1.00709V4.025L0 46H58.9929L60 20.7L54.1007 26.45L53.0936 40.25H5.89929L6.90638 9.775L16.3452 18.975L18.115 20.7L26.374 28.75L30.5035 32.775L34.633 28.75L54.1007 9.775V19.55L60 13.8Z" fill="url(#paint0_linear)"/>
<path d="M91.6457 25.6027L91.1402 20.0978H84.0946L81.5038 25.6027H76.6066L87.9491 3H93.7942L96.2902 25.6027H91.6457ZM90.1608 7.24206H89.908L85.8955 16.1795H90.8243L90.1608 7.24206Z" fill="white"/>
<path d="M98.3818 25.6027L99.1401 21.7816H101.857L104.796 6.82109H102.078L102.805 3H112.852L112.094 6.82109H109.377L106.439 21.7816H109.156L108.429 25.6027H98.3818Z" fill="white"/>
<path d="M116.898 25.6027H112.316L116.74 3H125.333C127.44 3 129.072 3.50732 130.231 4.52196C131.41 5.5366 132 6.97221 132 8.82878C132 9.67071 131.884 10.5019 131.652 11.3222C131.421 12.121 131.073 12.8765 130.61 13.5889C130.146 14.2798 129.578 14.895 128.904 15.4347C128.251 15.9528 127.482 16.363 126.597 16.6653L129.251 25.6027H124.354L122.174 17.2157H118.541L116.898 25.6027ZM124.038 13.2004C124.754 13.2004 125.365 13.0061 125.871 12.6175C126.397 12.2289 126.745 11.6352 126.913 10.8365C127.019 10.3399 127.103 9.94057 127.166 9.63833C127.229 9.31451 127.261 9.06625 127.261 8.89354C127.261 8.39702 127.092 7.98684 126.755 7.66302C126.439 7.31761 125.934 7.14491 125.239 7.14491H120.499L119.33 13.2004H124.038Z" fill="white"/>
<g opacity="0.6">
<path d="M74 42.8057L74.0948 42.3038H75.7219L77.744 32.0063H76.1011L76.1958 31.5044H80.0346L79.9398 32.0063H78.3127L76.2906 42.3038H77.9336L77.8388 42.8057H74Z" fill="white"/>
<path d="M85.5329 32.2977H85.4855L83.4476 42.8057H82.8947L85.1063 31.5044H85.8172L90.0193 42.0123H90.0667L92.1046 31.5044H92.6575L90.4459 42.8057H89.735L85.5329 32.2977Z" fill="white"/>
<path d="M98.3077 31.5044H101.925C102.715 31.5044 103.315 31.704 103.726 32.1034C104.147 32.492 104.358 33.0479 104.358 33.7711C104.358 34.1057 104.321 34.4403 104.248 34.7749C104.174 35.0988 104.053 35.401 103.884 35.6816C103.716 35.9515 103.494 36.189 103.221 36.3941C102.947 36.5991 102.61 36.7449 102.21 36.8312L102.194 36.8798C102.72 36.9985 103.121 37.2576 103.394 37.657C103.668 38.0455 103.805 38.5205 103.805 39.0818C103.805 39.6539 103.726 40.172 103.568 40.6361C103.41 41.0895 103.184 41.478 102.889 41.8019C102.594 42.1257 102.236 42.3739 101.815 42.5467C101.404 42.7194 100.941 42.8057 100.425 42.8057H96.1276L98.3077 31.5044ZM100.44 42.2876C101.199 42.2876 101.794 42.0933 102.225 41.7047C102.668 41.3053 102.952 40.7818 103.078 40.1342C103.142 39.8212 103.179 39.5891 103.189 39.438C103.21 39.2761 103.221 39.1519 103.221 39.0656C103.221 38.7957 103.179 38.5475 103.094 38.3208C103.021 38.0833 102.899 37.8782 102.731 37.7055C102.573 37.5328 102.368 37.3979 102.115 37.3008C101.873 37.1928 101.583 37.1388 101.246 37.1388H97.7706L96.7911 42.2876H100.44ZM101.104 36.6207C101.809 36.6207 102.378 36.4642 102.81 36.1512C103.252 35.8382 103.531 35.3848 103.647 34.7911C103.7 34.4673 103.731 34.2352 103.742 34.0949C103.763 33.9546 103.774 33.8413 103.774 33.7549C103.774 33.226 103.621 32.805 103.315 32.492C103.021 32.179 102.541 32.0225 101.878 32.0225H98.7658L97.8811 36.6207H101.104Z" fill="white"/>
<path d="M112.041 43C111.514 43 111.03 42.919 110.587 42.7571C110.145 42.5844 109.766 42.3308 109.45 41.9962C109.134 41.6615 108.887 41.2568 108.708 40.7818C108.539 40.2961 108.455 39.7348 108.455 39.098C108.455 38.5475 108.497 37.97 108.581 37.3655C108.676 36.761 108.813 36.1728 108.992 35.6007C109.181 35.0178 109.418 34.4673 109.703 33.9492C109.987 33.4311 110.324 32.9777 110.714 32.5892C111.114 32.2006 111.567 31.8929 112.072 31.6663C112.578 31.4288 113.147 31.3101 113.779 31.3101C114.305 31.3101 114.79 31.3964 115.232 31.5691C115.674 31.731 116.053 31.9793 116.369 32.3139C116.685 32.6485 116.927 33.0587 117.096 33.5444C117.275 34.0302 117.365 34.5861 117.365 35.2121C117.365 35.7626 117.317 36.3401 117.222 36.9445C117.138 37.549 117.001 38.1427 116.812 38.7256C116.633 39.2976 116.401 39.8427 116.117 40.3609C115.832 40.879 115.49 41.3323 115.09 41.7209C114.7 42.1095 114.247 42.4225 113.731 42.66C113.226 42.8867 112.662 43 112.041 43ZM112.072 42.4657C112.62 42.4657 113.131 42.3578 113.605 42.1419C114.079 41.926 114.5 41.6184 114.869 41.219C115.248 40.8088 115.569 40.3177 115.832 39.7456C116.106 39.1627 116.311 38.5151 116.448 37.8027L116.654 36.7341C116.706 36.421 116.743 36.1296 116.764 35.8597C116.785 35.5899 116.796 35.347 116.796 35.1311C116.796 34.1165 116.533 33.3178 116.006 32.7349C115.49 32.1412 114.737 31.8444 113.747 31.8444C113.199 31.8444 112.689 31.9577 112.215 32.1844C111.741 32.4003 111.314 32.7133 110.935 33.1235C110.566 33.5228 110.245 34.0086 109.971 34.5807C109.708 35.1527 109.508 35.795 109.371 36.5074L109.166 37.576C109.113 37.889 109.076 38.1805 109.055 38.4503C109.034 38.7202 109.024 38.963 109.024 39.1789C109.024 40.1936 109.282 40.9977 109.798 41.5914C110.324 42.1743 111.082 42.4657 112.072 42.4657Z" fill="white"/>
<path d="M127.826 42.8057H127.226L124.888 37.5598H124.825L120.481 42.8057H119.786L124.572 37.0417L122.092 31.5044H122.708L124.983 36.5883H125.03L129.232 31.5044H129.927L125.267 37.1065L127.826 42.8057Z" fill="white"/>
</g>
<defs>
<linearGradient id="paint0_linear" x1="60" y1="5.48363e-06" x2="-6.98068" y2="23.2403" gradientUnits="userSpaceOnUse">
<stop stop-color="#D045AE"/>
<stop offset="1" stop-color="#473CC2"/>
</linearGradient>
</defs>
</svg>