<svg width="30" height="25" viewBox="0 0 30 25" fill="none" xmlns="http://www.w3.org/2000/svg">
<path fill-rule="evenodd" clip-rule="evenodd" d="M0.922821 15.9057V16.6108H15.688C15.9428 16.6108 16.1494 16.8174 16.1494 17.0722C16.1494 17.327 15.9428 17.5336 15.688 17.5336H0.461411C0.20658 17.5336 0 17.327 0 17.0722V0.461411C0 0.206581 0.20658 0 0.461411 0H25.3776C25.6324 0 25.839 0.206581 25.839 0.461411V10.151C25.839 10.4059 25.6324 10.6124 25.3776 10.6124C25.1227 10.6124 24.9162 10.4059 24.9162 10.151V3.71188L18.0478 9.05394L20.1348 10.7727C20.3315 10.9347 20.3597 11.2254 20.1977 11.4222C20.0357 11.6189 19.7449 11.647 19.5482 11.485L17.3013 9.6346L13.2028 12.8223C13.0362 12.9519 12.8028 12.9519 12.6362 12.8223L8.53773 9.6346L0.922821 15.9057ZM0.922821 3.71188V14.7102L7.79118 9.05394L0.922821 3.71188ZM24.9162 2.5428V0.922821H0.922821V2.5428L12.9195 11.8735L24.9162 2.5428ZM29.204 23.8582L26.4522 21.1064C25.6568 21.7572 24.64 22.1477 23.5319 22.1477C20.9835 22.1477 18.9178 20.0822 18.9178 17.5336C18.9178 14.9851 20.9833 12.9195 23.5319 12.9195C26.0804 12.9195 28.146 14.985 28.146 17.5336C28.146 18.6417 27.7556 19.6584 27.1047 20.4538L29.8565 23.2057C30.2916 23.6407 29.639 24.2932 29.204 23.8582ZM19.8407 17.5336C19.8407 19.5726 21.4931 21.2249 23.5319 21.2249C25.5709 21.2249 27.2232 19.5724 27.2232 17.5336C27.2232 15.4946 25.5708 13.8423 23.5319 13.8423C21.493 13.8423 19.8407 15.4948 19.8407 17.5336Z" fill="url(#paint0_linear)"/>
<defs>
<linearGradient id="paint0_linear" x1="30" y1="2.86122e-06" x2="-3.78704" y2="11.2338" gradientUnits="userSpaceOnUse">
<stop stop-color="#D045AE"/>
<stop offset="1" stop-color="#473CC2"/>
</linearGradient>
</defs>
</svg>
