<svg width="36" height="36" viewBox="0 0 36 36" fill="none" xmlns="http://www.w3.org/2000/svg">
<path fill-rule="evenodd" clip-rule="evenodd" d="M17.9482 1.75L14.6379 5.06034L15.1551 5.57758L17.431 3.30169V6.81891H18.4655V3.19818L20.8449 5.57758L21.3621 5.06034L18.2587 1.95689L18.2069 2.00868L17.9482 1.75ZM19.3969 8.92704C19.6038 8.92704 19.8107 9.13396 19.8107 9.34086V10.3753V11.0995L20.5348 11.3063C21.4658 11.6167 22.19 12.1339 22.9141 12.7546L23.4314 13.2719L24.052 12.9615L24.8796 12.4443H25.0865C25.19 12.4443 25.2934 12.4443 25.3969 12.6512C25.8107 13.3754 26.3279 14.3063 26.7417 15.1339C26.8107 15.2029 26.7877 15.2719 26.7647 15.3408C26.7532 15.3753 26.7417 15.4098 26.7417 15.4443C26.7417 15.5477 26.6382 15.6512 26.5348 15.6512L25.7072 16.1684L25.0865 16.4787L25.19 17.2029C25.2934 17.6167 25.2934 18.0305 25.2934 18.4443C25.2934 18.6512 25.2676 18.8581 25.2417 19.065C25.2158 19.2719 25.19 19.4788 25.19 19.6857L25.0865 20.4098L25.7072 20.7202L26.5348 21.2374L26.7417 21.4443V21.7546C26.3279 22.4788 25.8107 23.4098 25.3969 24.2374L25.3968 24.2374C25.2934 24.3408 25.19 24.4443 25.0865 24.4443H24.8796L24.052 23.927L23.4314 23.6167L22.9141 24.1339C22.19 24.7546 21.3624 25.2719 20.5348 25.5822L19.8107 25.7891V26.5132V27.5477C19.8107 27.7546 19.6038 27.9615 19.3969 27.9615H16.6038C16.3969 27.9615 16.19 27.7546 16.19 27.5477V26.5132V25.7891L15.4658 25.5822C14.5348 25.2719 13.8107 24.7546 13.0865 24.1339L12.5693 23.6167L11.9486 23.927L11.121 24.1339H10.9141C10.8107 24.1339 10.7072 24.1339 10.6038 23.927L9.25895 21.4443C9.18998 21.3753 9.21298 21.3064 9.23597 21.2374C9.24746 21.2029 9.25895 21.1684 9.25895 21.1339C9.25895 21.0305 9.3624 20.9271 9.46585 20.9271L10.2934 20.4098L10.9141 20.0994L10.8107 19.3753C10.7072 18.8581 10.7072 18.5477 10.7072 18.134C10.7072 17.9271 10.7331 17.7202 10.759 17.5133C10.7848 17.3064 10.8107 17.0995 10.8107 16.8926L10.9141 16.1684L10.2934 15.8581L9.46585 15.3408C9.25895 15.2374 9.25895 15.0305 9.3624 14.8236L10.7072 12.3408C10.8107 12.2374 10.9141 12.134 11.0176 12.134H11.2245L12.0521 12.6512L12.6727 12.9615L13.19 12.4443C13.9141 11.8236 14.7417 11.3064 15.5693 10.996L16.2934 10.7891V10.065V9.03053C16.2934 8.82363 16.5003 8.61671 16.7072 8.61671H19.3969V8.92704ZM18.052 22.5822C20.4314 22.5822 22.3969 20.6167 22.3969 18.2374C22.3969 15.8581 20.4314 13.8925 18.052 13.8925C15.6727 13.8925 13.7072 15.8581 13.7072 18.2374C13.7072 20.6167 15.6727 22.5822 18.052 22.5822ZM19.3969 7.89256H16.6038C15.8796 7.89256 15.1555 8.51327 15.1555 9.34086V10.3753C14.121 10.7891 13.19 11.3064 12.4658 12.0305L11.6383 11.5132L11.6382 11.5132C11.4313 11.4098 11.2244 11.3063 10.9141 11.3063C10.3969 11.3063 9.98309 11.5132 9.67274 12.0305L8.32792 14.5133C7.91413 15.2374 8.22447 16.065 8.84516 16.4787L9.67274 16.996C9.5693 17.4098 9.5693 17.927 9.5693 18.4443C9.5693 18.7029 9.59516 18.9357 9.62102 19.1684L9.62102 19.1684C9.64688 19.4012 9.67274 19.634 9.67274 19.8926L8.84516 20.4098C8.12102 20.8236 7.91413 21.6512 8.32792 22.3753L9.67274 24.8581C9.87964 25.2719 10.3969 25.5822 10.9141 25.5822C11.121 25.5822 11.4314 25.4788 11.6383 25.3753L12.4658 24.8581C13.2934 25.5822 14.2245 26.0995 15.1555 26.4098V27.4443C15.1555 28.1684 15.7762 28.8925 16.6038 28.8925H19.3969C20.121 28.8925 20.8451 28.2719 20.8451 27.4443V26.4098C21.8796 26.0995 22.8107 25.4788 23.5348 24.8581L24.3624 25.3753L24.3625 25.3754C24.5693 25.4788 24.7762 25.5822 25.0865 25.5822C25.6038 25.5822 26.0176 25.3753 26.3279 24.8581C26.6362 24.3648 26.9078 23.8347 27.1645 23.3335C27.3385 22.994 27.5056 22.6678 27.6727 22.3753C28.0865 21.6512 27.7762 20.8236 27.1555 20.4098L26.3279 19.8926C26.4314 19.4788 26.4314 18.9615 26.4314 18.4443C26.4314 18.1857 26.4055 17.9529 26.3796 17.7201L26.3796 17.7201C26.3538 17.4873 26.3279 17.2546 26.3279 16.996L27.1555 16.4787C27.8796 16.065 28.0865 15.2374 27.6727 14.5133C27.1555 13.6857 26.6382 12.7546 26.3279 12.0305C26.121 11.6167 25.6038 11.3063 25.0865 11.3063C24.8796 11.3063 24.5693 11.4098 24.3624 11.5132L23.5348 12.0305C22.7072 11.3064 21.7762 10.7891 20.8451 10.4788V9.44428C20.8451 8.51325 20.2245 7.89256 19.3969 7.89256ZM18.052 21.5477C16.2934 21.5477 14.7417 20.0994 14.7417 18.2374C14.7417 16.3753 16.19 14.927 18.052 14.927C19.9141 14.927 21.3624 16.3753 21.3624 18.2374C21.3624 20.0994 19.8107 21.5477 18.052 21.5477ZM17.431 29.5776H18.4655V33.1984L20.8449 30.819L21.3621 31.3362L18.2587 34.4397L18.2586 34.4396L17.9482 34.75L14.6379 31.3362L15.1551 30.819L17.431 33.166V29.5776ZM29.638 7.3362H29.6379V11.3706H28.9137V8.04634L26.3279 10.5431L25.6037 9.81891L28.1751 7.3362H24.8794V6.61206H29.638V7.3362ZM7.08607 28.4249L9.56891 25.8534L10.2931 26.5775L7.79603 29.1637H11.1206V29.8879H7.08607V29.8879H6.36193V25.1293H7.08607V28.4249ZM6.36193 6.61206H6.67236H7.08607H11.1206V7.3362H7.79606L10.2931 9.92236L9.56891 10.6465L7.08607 8.07498V11.3707H6.36193V6.61206ZM25.6037 26.681L26.3279 25.9568L28.9137 28.4535V25.1293H29.6379V29.1637H29.638V29.8879H24.8794V29.1637H28.1752L25.6037 26.681ZM5.32758 21.0948L3.05172 18.819H6.56872V17.7845H2.94814L5.32739 15.4052L4.81015 14.888L1.7067 17.9914L1.75849 18.0432L1.5 18.3017L4.81034 21.6121L5.32758 21.0948ZM29.3276 17.7845H32.9481L30.5689 15.4052L31.0861 14.888L33.9827 17.7845L34.1896 17.9914L34.4999 18.3017L31.0861 21.6121L30.5689 21.0948L32.9159 18.819H29.3276V17.7845Z" fill="url(#paint0_linear)"/>
<defs>
<linearGradient id="paint0_linear" x1="34.4999" y1="1.75" x2="-4.04677" y2="12.0038" gradientUnits="userSpaceOnUse">
<stop stop-color="#D045AE"/>
<stop offset="1" stop-color="#473CC2"/>
</linearGradient>
</defs>
</svg>
