<svg width="36" height="36" viewBox="0 0 36 36" fill="none" xmlns="http://www.w3.org/2000/svg">
<path fill-rule="evenodd" clip-rule="evenodd" d="M4 18.25C4 10.6854 9.99959 4.52204 17.5 4.25876V8.76293C12.4857 9.02294 8.5 13.171 8.5 18.25C8.5 23.4967 12.7533 27.75 18 27.75C23.2467 27.75 27.5 23.4967 27.5 18.25C27.5 15.7102 26.5027 13.4023 24.8793 11.6982L24.1552 12.388C25.6086 13.9135 26.5 15.9771 26.5 18.25C26.5 22.9444 22.6944 26.75 18 26.75C13.3056 26.75 9.5 22.9444 9.5 18.25C9.5 13.7234 13.0383 10.0233 17.5 9.76446V14.2809C15.5268 14.527 14 16.2102 14 18.25C14 20.4591 15.7909 22.25 18 22.25C20.2091 22.25 22 20.4591 22 18.25C22 16.2102 20.4732 14.527 18.5 14.2809V3.25H18H17.5V3.25818C9.44719 3.52192 3 10.133 3 18.25C3 26.5343 9.71573 33.25 18 33.25C26.2843 33.25 33 26.5343 33 18.25C33 14.2397 31.4255 10.596 28.8621 7.90512L28.138 8.59488C30.5315 11.1072 32 14.5066 32 18.25C32 25.982 25.732 32.25 18 32.25C10.268 32.25 4 25.982 4 18.25Z" fill="url(#paint0_linear)"/>
<defs>
<linearGradient id="paint0_linear" x1="33" y1="3.25" x2="-2.04252" y2="12.5717" gradientUnits="userSpaceOnUse">
<stop stop-color="#D045AE"/>
<stop offset="1" stop-color="#473CC2"/>
</linearGradient>
</defs>
</svg>
