<svg width="36" height="36" viewBox="0 0 36 36" fill="none" xmlns="http://www.w3.org/2000/svg">
<path fill-rule="evenodd" clip-rule="evenodd" d="M30.724 14.25H32.5C32.7765 14.25 33 14.474 33 14.7495V18.7495C33 19.0255 32.7765 19.2495 32.5 19.2495H30.7245C30.6535 19.5705 30.569 19.8875 30.472 20.1975L32.0085 21.0845C32.1235 21.1505 32.2075 21.2595 32.2415 21.388C32.2755 21.5165 32.258 21.653 32.1915 21.7675L30.1915 25.2315C30.0535 25.4705 29.747 25.552 29.5085 25.4145L27.969 24.5255C27.748 24.7655 27.5165 24.997 27.276 25.218L28.165 26.758C28.3035 26.997 28.2215 27.303 27.982 27.441L24.5181 29.441C24.4026 29.5075 24.2661 29.525 24.1386 29.4909C24.0111 29.4564 23.9016 29.3724 23.8351 29.258L22.9481 27.7215C22.6376 27.8185 22.3211 27.903 22.0001 27.974V29.75C22.0001 30.0259 21.7766 30.2499 21.5001 30.2499H19.0001V29.25H21.0001V27.565C21.0001 27.324 21.1726 27.117 21.4096 27.074C21.9571 26.9735 22.4956 26.83 23.0091 26.6475C23.2366 26.566 23.4891 26.6595 23.6096 26.8685L24.4511 28.3255L27.0485 26.8255L26.2056 25.3655C26.0856 25.1565 26.1311 24.892 26.3136 24.7355C26.734 24.3765 27.1276 23.9825 27.4845 23.5645C27.641 23.3815 27.9055 23.335 28.115 23.456L29.575 24.299L31.075 21.7015L29.618 20.86C29.409 20.739 29.3165 20.487 29.397 20.2595C29.5795 19.746 29.723 19.2075 29.824 18.6595C29.8675 18.4225 30.0745 18.25 30.3155 18.25H32V15.25H30.3155C30.074 15.25 29.867 15.0775 29.824 14.841C29.7225 14.293 29.579 13.7545 29.397 13.241C29.316 13.0135 29.409 12.761 29.618 12.6405L31.075 11.799L29.575 9.20151L28.115 10.0445C27.9055 10.1655 27.6405 10.119 27.4845 9.93601C27.1276 9.51801 26.734 9.12401 26.3136 8.76501C26.1311 8.60851 26.0856 8.34352 26.2056 8.13502L27.0485 6.67502L24.4511 5.17502L23.6096 6.63202C23.4891 6.84052 23.2376 6.93352 23.0091 6.85302C22.4956 6.67052 21.9576 6.52702 21.4096 6.42652C21.1726 6.38302 21.0001 6.17602 21.0001 5.93502V4.25003H18.0001V5.93502C18.0001 6.17602 17.8276 6.38302 17.5906 6.42602C17.0431 6.52652 16.5046 6.67002 15.9911 6.85252C15.7631 6.93352 15.5106 6.84002 15.3906 6.63152L14.5491 5.17452L11.9516 6.67452L12.7946 8.13452C12.9146 8.34351 12.8691 8.60801 12.6866 8.76451C12.2661 9.12351 11.8726 9.51751 11.5156 9.93551C11.3586 10.1185 11.0946 10.165 10.8851 10.044L9.4251 9.20101L7.92511 11.7985L9.3821 12.64C9.5911 12.761 9.6836 13.013 9.6031 13.2405C9.4206 13.754 9.2771 14.2925 9.1761 14.8405C9.1326 15.0775 8.9256 15.25 8.68461 15.25H7.00011V18.25H6.00011V14.75C6.00011 14.474 6.22361 14.25 6.50011 14.25H8.27561C8.34661 13.929 8.43111 13.612 8.52811 13.302L6.99161 12.415C6.87661 12.349 6.79261 12.24 6.75861 12.1115C6.72461 11.983 6.74211 11.8465 6.80861 11.732L8.8086 8.26802C8.9466 8.02852 9.2526 7.94652 9.4916 8.08502L11.0311 8.97401C11.2521 8.73401 11.4836 8.50251 11.7241 8.28152L10.8351 6.74152C10.6966 6.50252 10.7786 6.19652 11.0181 6.05852L14.4821 4.05853C14.5971 3.99203 14.7336 3.97353 14.8616 4.00853C14.9891 4.04303 15.0986 4.12703 15.1651 4.24153L16.0521 5.77852C16.3626 5.68152 16.6791 5.59702 17.0001 5.52602V3.75003C17.0001 3.47403 17.2236 3.25003 17.5001 3.25003H21.5001C21.7766 3.25003 22.0001 3.47403 22.0001 3.75003V5.52602C22.3211 5.59702 22.6376 5.68102 22.9476 5.77802L23.8346 4.24153C23.9006 4.12653 24.0101 4.04253 24.1381 4.00853C24.2656 3.97403 24.4026 3.99203 24.5176 4.05853L27.9815 6.05852C28.2205 6.19652 28.3025 6.50202 28.1645 6.74152L27.2755 8.28152C27.5165 8.50251 27.748 8.73401 27.9685 8.97401L29.508 8.08502C29.746 7.94652 30.053 8.02852 30.191 8.26802L32.191 11.732C32.2575 11.847 32.2755 11.9835 32.241 12.1115C32.2065 12.2395 32.1225 12.3485 32.008 12.415L30.4715 13.302C30.5685 13.6125 30.653 13.929 30.724 14.25ZM17.2766 13.3025C17.5021 13.19 17.7766 13.263 17.9161 13.4725L18.6576 14.5835L21.0111 13.239L20.5716 12.507C20.4786 12.3525 20.4761 12.16 20.5651 12.0035C20.6541 11.847 20.8201 11.75 21.0001 11.75H23.5C23.666 11.75 23.821 11.8325 23.914 11.97C24.007 12.1075 24.026 12.282 23.9645 12.436L22.9646 14.936C22.8936 15.1125 22.7296 15.2335 22.5401 15.2485C22.5266 15.2495 22.5131 15.25 22.5001 15.25C22.3251 15.25 22.1621 15.1585 22.0711 15.007L21.5251 14.097L18.7481 15.684C18.6701 15.729 18.5846 15.75 18.5006 15.75C18.3386 15.75 18.1796 15.671 18.0846 15.5275L17.3291 14.3945L14.7241 15.697L14.2766 14.8025L17.2766 13.3025ZM22.4101 13.6285L22.7616 12.75H21.8836L22.4101 13.6285ZM28.0001 16.75C28.0001 12.063 24.1871 8.25002 19.5001 8.25002C15.4201 8.25002 11.9081 11.155 11.1496 15.157L12.1321 15.343C12.8016 11.8125 15.9001 9.25001 19.5001 9.25001C23.6356 9.25001 27.0001 12.6145 27.0001 16.75C27.0001 20.35 24.4376 23.4485 20.9066 24.1185L21.0931 25.101C25.0951 24.3415 28.0001 20.8295 28.0001 16.75ZM5.88762 26.12C5.63712 25.365 5.50012 24.5685 5.50012 23.75C5.50012 21.7465 6.28062 19.8635 7.69711 18.447C9.11361 17.0305 10.9966 16.25 13.0001 16.25C15.0036 16.25 16.8866 17.0305 18.3031 18.447C19.7196 19.8635 20.5001 21.7465 20.5001 23.75C20.5001 25.7535 19.7196 27.6365 18.3031 29.053C16.8866 30.4694 15.0036 31.2499 13.0001 31.2499C11.9161 31.2499 10.8706 31.0144 9.9121 30.5804L8.44961 32.0429C8.35611 32.1369 8.22911 32.1894 8.09611 32.1894C7.96311 32.1894 7.83661 32.1369 7.74261 32.0429L7.38911 31.6894L5.97462 33.1034C5.87712 33.2009 5.74912 33.2499 5.62112 33.2499C5.49312 33.2499 5.36512 33.2009 5.26762 33.1034L3.14662 30.9819C2.95113 30.7864 2.95113 30.4704 3.14662 30.2749L4.56062 28.861L4.20712 28.5075C4.11312 28.414 4.06062 28.2865 4.06062 28.154C4.06062 28.0215 4.11312 27.8945 4.20712 27.8005L5.88762 26.12ZM4.20712 30.6284L5.62112 32.0429L6.68211 30.9819L5.26762 29.5674L4.20712 30.6284ZM5.26762 28.154L8.09611 30.9824L8.99311 30.0849C8.53061 29.7909 8.09361 29.4499 7.69661 29.053C7.12211 28.4785 6.65811 27.824 6.30261 27.119L5.26762 28.154ZM17.5961 19.154C16.3686 17.9265 14.7366 17.25 13.0001 17.25C11.2636 17.25 9.6316 17.9265 8.40411 19.154C7.17661 20.3815 6.50011 22.014 6.50011 23.75C6.50011 25.486 7.17661 27.1185 8.40411 28.346C9.6316 29.5735 11.2636 30.2499 13.0001 30.2499C14.7366 30.2499 16.3686 29.5735 17.5961 28.346C18.8236 27.1185 19.5001 25.486 19.5001 23.75C19.5001 22.014 18.8236 20.3815 17.5961 19.154ZM13.0001 29.25C16.0326 29.25 18.5001 26.7825 18.5001 23.75C18.5001 20.7175 16.0326 18.25 13.0001 18.25C9.9676 18.25 7.50011 20.7175 7.50011 23.75C7.50011 26.7825 9.9676 29.25 13.0001 29.25ZM13.0001 19.25C15.4816 19.25 17.5001 21.269 17.5001 23.75C17.5001 26.231 15.4816 28.25 13.0001 28.25C10.5186 28.25 8.50011 26.231 8.50011 23.75C8.50011 21.269 10.5186 19.25 13.0001 19.25ZM13.8001 21.4165C13.5476 21.306 13.2786 21.25 13.0001 21.25C12.3651 21.25 11.7816 21.5415 11.4001 22.05L10.6001 21.4495C11.1731 20.6875 12.0476 20.25 13.0001 20.25C13.4171 20.25 13.8211 20.334 14.2001 20.5L13.8001 21.4165ZM24.0001 15.75H23.0001V20.25H24.0001V15.75ZM21.0001 16.75H22.0001V20.25H21.0001V16.75Z" fill="url(#paint0_linear)"/>
<defs>
<linearGradient id="paint0_linear" x1="33" y1="3.25003" x2="-2.0425" y2="12.5717" gradientUnits="userSpaceOnUse">
<stop stop-color="#D045AE"/>
<stop offset="1" stop-color="#473CC2"/>
</linearGradient>
</defs>
</svg>
