<svg width="36" height="36" viewBox="0 0 36 36" fill="none" xmlns="http://www.w3.org/2000/svg">
<path d="M34.9594 3.82895C34.8541 3.61842 34.6962 3.51316 34.4857 3.40789L34.3804 3.35526C34.2752 3.30263 34.1173 3.25 33.9594 3.25H2.06463C1.43305 3.25 0.906738 3.77632 0.906738 4.40789C0.906738 4.61842 0.95937 4.77632 1.06463 4.93421L2.1699 6.98684L2.22253 7.09211L3.012 8.61842V8.56579V8.61842L3.06463 8.67105L3.11726 8.72368L13.1173 19.5658C13.1173 19.5658 13.1699 19.6184 13.1699 19.6711V27.0921C13.2225 27.3553 13.5383 27.5658 13.8015 27.4605C14.012 27.4079 14.1173 27.25 14.1699 27.0921V19.6711C14.1699 19.4079 14.0646 19.0921 13.8541 18.8816L4.69621 8.93421H31.3278L22.1699 18.9342C21.9594 19.1447 21.8541 19.4079 21.8541 19.7237V27.0921C21.8541 27.1447 21.8541 27.1447 21.8015 27.1974L14.3278 32.1974C14.2752 32.1974 14.2225 32.1974 14.2225 32.1974C14.1699 32.1974 14.1699 32.1447 14.1699 32.0921V29.1974C14.2225 28.9342 14.0646 28.6184 13.8015 28.5658C13.5383 28.5132 13.2225 28.6711 13.1699 28.9342C13.1699 29.0395 13.1699 29.0921 13.1699 29.1974V32.0921C13.1699 32.5132 13.3804 32.8816 13.7488 33.0921C13.9067 33.1974 14.1173 33.1974 14.2752 33.25C14.4857 33.25 14.7488 33.1974 14.9067 33.0395L22.3278 28.0395C22.6436 27.8289 22.8541 27.4605 22.8541 27.0921V19.7237C22.8541 19.6711 22.8541 19.6711 22.8541 19.6184L32.8015 8.82895L32.8541 8.77632C32.9067 8.77632 32.9067 8.72368 32.9067 8.67105V8.61842L34.9067 4.93421C35.1173 4.61842 35.1699 4.19737 34.9594 3.82895ZM2.74884 5.93421L1.95937 4.46053C1.90674 4.40789 1.90674 4.30263 2.012 4.30263H2.06463H4.43305L2.74884 5.93421ZM6.27516 7.93421L6.69621 7.51316C6.85411 7.25 6.80147 6.93421 6.53832 6.77632C6.38042 6.67105 6.1699 6.67105 5.95937 6.77632L4.85411 7.93421H3.80147L3.22253 6.88158L5.85411 4.25H8.48568L8.06463 4.67105C7.85411 4.88158 7.85411 5.19737 8.06463 5.40789C8.27516 5.61842 8.59095 5.61842 8.80147 5.40789L9.95937 4.25H12.5909L8.95937 7.88158L6.27516 7.93421ZM10.3804 7.93421L14.012 4.30263H16.6436L13.012 7.93421H10.3804ZM14.4857 7.93421L18.1173 4.30263H20.7488L17.1173 7.93421H14.4857ZM22.6436 7.93421L23.0646 7.51316C23.3278 7.35526 23.3804 7.03947 23.2225 6.77632C23.0646 6.51316 22.7488 6.46053 22.4857 6.61842C22.4331 6.67105 22.3804 6.72368 22.3278 6.77632L21.1699 7.93421H18.5383L22.2225 4.30263H24.8541L24.3804 4.77632C24.1699 4.98684 24.1699 5.30263 24.3804 5.51316C24.5909 5.72368 24.9067 5.72368 25.1173 5.51316L26.3278 4.30263H28.9594L25.3278 7.93421H22.6436ZM26.6962 7.93421L30.3804 4.30263H33.012L29.3278 7.93421H26.6962ZM32.1699 7.93421H30.8015L33.8015 4.93421L32.1699 7.93421Z" fill="url(#paint0_linear)"/>
<defs>
<linearGradient id="paint0_linear" x1="35.0934" y1="3.25" x2="-4.06678" y2="15.1207" gradientUnits="userSpaceOnUse">
<stop stop-color="#D045AE"/>
<stop offset="1" stop-color="#473CC2"/>
</linearGradient>
</defs>
</svg>
