<svg width="36" height="36" viewBox="0 0 36 36" fill="none" xmlns="http://www.w3.org/2000/svg">
<path d="M33 9.75C33 8.543 32.1395 7.533 31 7.3005V4.25C31 3.9735 30.7765 3.75 30.5 3.75H23V2.75C23 2.4735 22.7765 2.25 22.5 2.25H13.5C13.2235 2.25 13 2.4735 13 2.75V3.75H9.5C9.2235 3.75 9 3.9735 9 4.25V9.25H5.5C5.2235 9.25 5 9.4735 5 9.75V14.3005C3.8605 14.533 3 15.543 3 16.75C3 17.957 3.8605 18.967 5 19.1995V23.75C5 24.0265 5.2235 24.25 5.5 24.25H13V25.25C13 25.5265 13.2235 25.75 13.5 25.75H17.5V27.29C15.807 27.534 14.5 28.9905 14.5 30.75C14.5 32.6795 16.0705 34.25 18 34.25C19.7595 34.25 21.216 32.943 21.46 31.25H27C27.2765 31.25 27.5 31.0265 27.5 30.75V17.25H30.5C30.7765 17.25 31 17.0265 31 16.75V12.1995C32.1395 11.967 33 10.957 33 9.75ZM14 3.25H22V5.25H14V3.25ZM10 4.75H13V5.75C13 6.0265 13.2235 6.25 13.5 6.25H17.5V7.75H13.5C13.2235 7.75 13 7.9735 13 8.25V9.25H10V4.75ZM18 19.5785L15.1715 16.75L18 13.9215L20.8285 16.75L18 19.5785ZM14 10.75V8.75H22V10.75H14ZM4 16.75C4 15.923 4.673 15.25 5.5 15.25C6.327 15.25 7 15.923 7 16.75C7 17.577 6.327 18.25 5.5 18.25C4.673 18.25 4 17.577 4 16.75ZM13 22.25V23.25H6V19.1995C7.1395 18.967 8 17.9575 8 16.75C8 15.5425 7.1395 14.533 6 14.3005V10.25H13V11.25C13 11.5265 13.2235 11.75 13.5 11.75H17.5V13.0075L14.2575 16.25H13V17.25H14.2575L17.5 20.4925V21.75H13.5C13.2235 21.75 13 21.9735 13 22.25ZM14 22.75H22V24.75H14V22.75ZM18 33.25C16.6215 33.25 15.5 32.1285 15.5 30.75C15.5 29.3715 16.6215 28.25 18 28.25C19.3785 28.25 20.5 29.3715 20.5 30.75C20.5 32.1285 19.3785 33.25 18 33.25ZM26.5 30.25H21.46C21.2395 28.7205 20.0295 27.5105 18.5 27.29V25.75H22.5C22.7765 25.75 23 25.5265 23 25.25V22.25C23 21.9735 22.7765 21.75 22.5 21.75H18.5V20.4925L21.7425 17.25H26.5V30.25ZM21.7425 16.25L18.5 13.0075V11.75H22.5C22.7765 11.75 23 11.5265 23 11.25V8.25C23 7.9735 22.7765 7.75 22.5 7.75H18.5V6.25H22.5C22.7765 6.25 23 6.0265 23 5.75V4.75H30V7.3005C28.8605 7.533 28 8.5425 28 9.75C28 10.9575 28.8605 11.967 30 12.1995V16.25H21.7425ZM30.5 11.25C29.673 11.25 29 10.577 29 9.75C29 8.923 29.673 8.25 30.5 8.25C31.327 8.25 32 8.923 32 9.75C32 10.577 31.327 11.25 30.5 11.25Z" fill="url(#paint0_linear)"/>
<defs>
<linearGradient id="paint0_linear" x1="33" y1="2.25" x2="-2.3252" y2="11.0596" gradientUnits="userSpaceOnUse">
<stop stop-color="#D045AE"/>
<stop offset="1" stop-color="#473CC2"/>
</linearGradient>
</defs>
</svg>
