<svg width="36" height="36" viewBox="0 0 36 36" fill="none" xmlns="http://www.w3.org/2000/svg">
<path fill-rule="evenodd" clip-rule="evenodd" d="M14.9397 4.36018C14.8369 4.41113 14.7419 4.47905 14.6585 4.5625L4.3125 14.9085C4.22898 14.992 4.16101 15.087 4.11005 15.19L15.1754 15.4256L14.9397 4.36018ZM4.3125 16.4185C4.2438 16.3498 4.18563 16.2733 4.13878 16.1911L15.1967 16.4265L15.2005 16.605C15.2525 19.0455 17.2045 20.9975 19.645 21.0495L19.8232 21.0533L20.0586 32.1071C19.9763 32.0621 19.8996 32.0055 19.8315 31.9375L4.3125 16.4185ZM21.0596 32.1351C21.1628 32.0863 21.2585 32.0204 21.3415 31.9375L31.687 21.5915C31.7708 21.5079 31.8389 21.4128 31.89 21.3098L20.8241 21.0746L21.0596 32.1351ZM16.2005 16.5835L16.1869 15.9478L16.187 15.9472C16.1872 15.933 16.1869 15.9188 16.186 15.9048L15.9408 4.38876C16.0231 4.43561 16.0996 4.49379 16.1685 4.5625L31.687 20.0815C31.7558 20.1501 31.8141 20.2265 31.8609 20.3087L19.666 20.0495C17.763 20.009 16.241 18.487 16.2005 16.5835ZM19.1245 32.6445C19.515 33.035 20.034 33.25 20.5865 33.25C21.1385 33.25 21.658 33.035 22.0485 32.6445L32.394 22.2985C32.785 21.908 33 21.3885 33 20.8365C33 20.284 32.785 19.765 32.394 19.3745L16.8755 3.8555C16.485 3.465 15.9655 3.25 15.4135 3.25C14.8615 3.25 14.342 3.465 13.9515 3.8555L3.6055 14.2015C3.215 14.592 3 15.1115 3 15.6635C3 16.216 3.215 16.735 3.6055 17.1255L19.1245 32.6445ZM10.5 5.75H4.5C4.224 5.75 4 5.526 4 5.25C4 4.974 4.224 4.75 4.5 4.75H10.5C10.776 4.75 11 4.974 11 5.25C11 5.526 10.776 5.75 10.5 5.75ZM6.5 27.75H11.5C11.776 27.75 12 27.526 12 27.25C12 26.974 11.776 26.75 11.5 26.75H6.5C6.224 26.75 6 26.974 6 27.25C6 27.526 6.224 27.75 6.5 27.75ZM15 31.25H4C3.724 31.25 3.5 31.026 3.5 30.75C3.5 30.474 3.724 30.25 4 30.25H15C15.276 30.25 15.5 30.474 15.5 30.75C15.5 31.026 15.276 31.25 15 31.25ZM4.5 10.25H6C6.276 10.25 6.5 10.026 6.5 9.75C6.5 9.474 6.276 9.25 6 9.25H4.5C4.224 9.25 4 9.474 4 9.75C4 10.026 4.224 10.25 4.5 10.25Z" fill="url(#paint0_linear)"/>
<defs>
<linearGradient id="paint0_linear" x1="33" y1="3.25" x2="-2.04252" y2="12.5717" gradientUnits="userSpaceOnUse">
<stop stop-color="#D045AE"/>
<stop offset="1" stop-color="#473CC2"/>
</linearGradient>
</defs>
</svg>
