<svg width="36" height="36" viewBox="0 0 36 36" fill="none" xmlns="http://www.w3.org/2000/svg">
<path fill-rule="evenodd" clip-rule="evenodd" d="M18.875 3.76321V1.37498H17.875V3.75474C10.2065 3.94941 4.01777 10.0977 3.75846 17.75H1.5V18.75H3.75846C4.01777 26.4022 10.2065 32.5506 17.875 32.7452V35.125H18.875V32.7368C26.4276 32.4165 32.4851 26.3189 32.7415 18.75H35.25V17.75H32.7415C32.4851 10.1811 26.4276 4.0835 18.875 3.76321ZM17.875 4.75509C10.7588 4.94917 5.01759 10.6501 4.75909 17.75H6.76067C7.01714 11.7548 11.8635 6.94857 17.875 6.75598V4.75509ZM18.875 6.76668V4.7642C25.8752 5.08319 31.4854 10.7334 31.7409 17.75H29.7393C29.4864 11.8382 24.7703 7.08242 18.875 6.76668ZM17.875 7.75656V8.87498H18.875V7.76828C24.2179 8.08192 28.4871 12.3906 28.7383 17.75H27.75V18.75H28.7383C28.4871 24.1094 24.2179 28.418 18.875 28.7317V27.625H17.875V28.7434C12.4159 28.5518 8.01685 24.1927 7.76169 18.75H9V17.75H7.76169C8.01685 12.3073 12.4159 7.94818 17.875 7.75656ZM31.7409 18.75C31.4854 25.7665 25.8752 31.4168 18.875 31.7358V29.7333C24.7703 29.4176 29.4864 24.6618 29.7393 18.75H31.7409ZM4.75909 18.75C5.01759 25.8499 10.7588 31.5508 17.875 31.7449V29.744C11.8635 29.5514 7.01714 24.7451 6.76067 18.75H4.75909ZM18.25 11.25C14.384 11.25 11.25 14.384 11.25 18.25H10.25C10.25 13.8317 13.8317 10.25 18.25 10.25V11.25ZM18.25 25.25C22.116 25.25 25.25 22.116 25.25 18.25H26.25C26.25 22.6683 22.6683 26.25 18.25 26.25V25.25ZM35.25 9.24998C35.25 9.80227 34.8023 10.25 34.25 10.25C33.6977 10.25 33.25 9.80227 33.25 9.24998C33.25 8.6977 33.6977 8.24998 34.25 8.24998C34.8023 8.24998 35.25 8.6977 35.25 9.24998ZM8.75 4.24998C9.30229 4.24998 9.75 3.80227 9.75 3.24998C9.75 2.6977 9.30229 2.24998 8.75 2.24998C8.19772 2.24998 7.75 2.6977 7.75 3.24998C7.75 3.80227 8.19772 4.24998 8.75 4.24998ZM4.75 8.24998C4.75 8.80227 4.30228 9.24998 3.75 9.24998C3.19772 9.24998 2.75 8.80227 2.75 8.24998C2.75 7.6977 3.19772 7.24998 3.75 7.24998C4.30228 7.24998 4.75 7.6977 4.75 8.24998ZM1.75 25.75C2.30228 25.75 2.75 25.3023 2.75 24.75C2.75 24.1977 2.30228 23.75 1.75 23.75C1.19772 23.75 0.75 24.1977 0.75 24.75C0.75 25.3023 1.19772 25.75 1.75 25.75ZM12.25 33.75C12.25 34.3023 11.8023 34.75 11.25 34.75C10.6977 34.75 10.25 34.3023 10.25 33.75C10.25 33.1977 10.6977 32.75 11.25 32.75C11.8023 32.75 12.25 33.1977 12.25 33.75ZM29.75 33.75C30.3023 33.75 30.75 33.3023 30.75 32.75C30.75 32.1977 30.3023 31.75 29.75 31.75C29.1977 31.75 28.75 32.1977 28.75 32.75C28.75 33.3023 29.1977 33.75 29.75 33.75ZM35.25 27.75C35.25 28.3023 34.8023 28.75 34.25 28.75C33.6977 28.75 33.25 28.3023 33.25 27.75C33.25 27.1977 33.6977 26.75 34.25 26.75C34.8023 26.75 35.25 27.1977 35.25 27.75ZM33.25 4.49998C33.25 5.19034 32.6904 5.74998 32 5.74998C31.3096 5.74998 30.75 5.19034 30.75 4.49998C30.75 3.80963 31.3096 3.24998 32 3.24998C32.6904 3.24998 33.25 3.80963 33.25 4.49998ZM34.25 4.49998C34.25 5.74263 33.2426 6.74998 32 6.74998C30.7574 6.74998 29.75 5.74263 29.75 4.49998C29.75 3.25734 30.7574 2.24998 32 2.24998C33.2426 2.24998 34.25 3.25734 34.25 4.49998ZM4.25 33.75C5.35457 33.75 6.25 32.8546 6.25 31.75C6.25 30.6454 5.35457 29.75 4.25 29.75C3.14543 29.75 2.25 30.6454 2.25 31.75C2.25 32.8546 3.14543 33.75 4.25 33.75ZM4.25 34.75C5.90685 34.75 7.25 33.4068 7.25 31.75C7.25 30.0931 5.90685 28.75 4.25 28.75C2.59315 28.75 1.25 30.0931 1.25 31.75C1.25 33.4068 2.59315 34.75 4.25 34.75ZM18.7757 13.868L19.5971 16.3959H22.255H23.9563L22.58 17.3959L20.4296 18.9582L21.251 21.4861L21.7767 23.1041L20.4003 22.1041L18.25 20.5418L16.0997 22.1041L14.7233 23.1041L15.249 21.4861L16.0704 18.9582L13.92 17.3959L12.5437 16.3959H14.245H16.9029L17.7243 13.868L18.25 12.25L18.7757 13.868ZM19.5971 17.3959H20.8787L19.8418 18.1492L19.2541 18.5762L19.4786 19.2672L19.8746 20.4861L18.8378 19.7328L18.25 19.3057L17.6622 19.7328L16.6254 20.4861L17.0214 19.2672L17.2459 18.5762L16.6582 18.1492L15.6213 17.3959H16.9029H17.6295L17.854 16.7049L18.25 15.4861L18.646 16.7049L18.8705 17.3959H19.5971Z" fill="url(#paint0_linear)"/>
<defs>
<linearGradient id="paint0_linear" x1="35.25" y1="1.37499" x2="-4.92957" y2="12.3007" gradientUnits="userSpaceOnUse">
<stop stop-color="#D045AE"/>
<stop offset="1" stop-color="#473CC2"/>
</linearGradient>
</defs>
</svg>
