<svg xmlns="http://www.w3.org/2000/svg" xmlns:xlink="http://www.w3.org/1999/xlink" viewBox="0 0 101.28 32"><defs><style>.cls-1{fill:url(#Безымянный_градиент);}.cls-2{fill:#727885;}.cls-3{fill:#1b1f26;}</style><linearGradient id="Безымянный_градиент" x1="43.11" y1="22.69" x2="-2.23" y2="7.49" gradientTransform="matrix(1, 0, 0, -1, 0, 31)" gradientUnits="userSpaceOnUse"><stop offset="0" stop-color="#d045ae"/><stop offset="1" stop-color="#473cc2"/></linearGradient></defs><title>testermailer-logo--gradient</title><g id="Слой_2" data-name="Слой 2"><g id="Слой_1-2" data-name="Слой 1"><path class="cls-1" d="M40.32,9.6V0H31.45l-4,4h6L20.16,17.2l-5.64-5.6-1.21-1.2L6.85,4H22.58l4-4H0V32H40.32V14.4l-4,4V28H4V6.8l6.45,6.4,1.21,1.2L17.34,20l2.82,2.8L23,20,36.29,6.8v6.8Z"/><path class="cls-2" d="M97.69,23.46a2.29,2.29,0,0,0,1.15-.8,2.14,2.14,0,0,0,.43-1.37,1.94,1.94,0,0,0-.72-1.67,2.92,2.92,0,0,0-2-.57H94.1v6.79h.5V23.6h1.94a2,2,0,0,0,.64-.07l1.58,2.24h.58Zm-1.15-.29H94.6V19.48h1.94a2.23,2.23,0,0,1,1.65.51,1.72,1.72,0,0,1,.57,1.37,1.84,1.84,0,0,1-.57,1.37A2.78,2.78,0,0,1,96.54,23.17Z"/><path class="cls-2" d="M58.12,19.05l-3,5.27-3-5.27h-.43v6.79h.5V20.06L55,25h.21l2.88-4.91v5.78h.43V19.05Z"/><path class="cls-2" d="M65.16,19.05l-3.09,6.79h.5L63.43,24h3.88l.86,1.88h.5l-3.08-6.79Zm-1.51,4.48,1.79-3.91,1.8,3.91Z"/><path class="cls-2" d="M85.84,22.59h3.59v-.44H85.84V19.48h4v-.43H85.33v6.79H90v-.43H85.84Z"/><path class="cls-2" d="M72.77,19.05h-.51v6.79h.51Z"/><path class="cls-2" d="M77.87,19.05h-.43v6.79h4.3v-.43H77.87Z"/><path class="cls-3" d="M55.8,5.79V14.4H54.18V5.79h-3V4.35h7.57V5.79Z"/><path class="cls-3" d="M60.35,14.4v-10h6.39V5.79H62V8.58H66.3V10H62V13h4.78V14.4Z"/><path class="cls-3" d="M71.82,14.57a4.58,4.58,0,0,1-2.15-.46,4.84,4.84,0,0,1-1.5-1.24l1.11-1a3.89,3.89,0,0,0,1.16,1,3.17,3.17,0,0,0,1.46.33,2.13,2.13,0,0,0,1.45-.43,1.5,1.5,0,0,0,.48-1.17,1.25,1.25,0,0,0-.34-.93,2.4,2.4,0,0,0-1.22-.52l-.88-.16A4.21,4.21,0,0,1,69.2,9a2.49,2.49,0,0,1-.73-1.9,2.89,2.89,0,0,1,.24-1.2,2.64,2.64,0,0,1,.7-.91,3.28,3.28,0,0,1,1.1-.57A4.71,4.71,0,0,1,72,4.18a4.42,4.42,0,0,1,2,.4,3.87,3.87,0,0,1,1.41,1.14l-1.13,1a2.72,2.72,0,0,0-2.33-1.1A2.24,2.24,0,0,0,70.54,6a1.19,1.19,0,0,0-.47,1,1.15,1.15,0,0,0,.39,1,2.73,2.73,0,0,0,1.2.46l.89.19a4.07,4.07,0,0,1,2.18,1,2.53,2.53,0,0,1,.7,1.9,3.28,3.28,0,0,1-.24,1.28,2.78,2.78,0,0,1-.71,1,3.54,3.54,0,0,1-1.13.64A5.15,5.15,0,0,1,71.82,14.57Z"/><path class="cls-3" d="M80.84,5.79V14.4H79.23V5.79h-3V4.35h7.57V5.79Z"/><path class="cls-3" d="M85.39,14.4v-10h6.4V5.79H87V8.58h4.33V10H87V13h4.78V14.4Z"/><path class="cls-3" d="M95.49,14.4H93.87v-10h4.31a2.76,2.76,0,0,1,2.12.82,3.07,3.07,0,0,1,.77,2.2,3.11,3.11,0,0,1-.5,1.8,2.67,2.67,0,0,1-1.45,1l2.16,4.23h-1.8l-2-4.06h-2ZM98.06,9a1.33,1.33,0,0,0,1-.32,1.23,1.23,0,0,0,.35-.93V7A1.18,1.18,0,0,0,99,6.11a1.3,1.3,0,0,0-1-.34H95.49V9Z"/></g></g></svg>