<svg width="24" height="32" viewBox="0 0 24 32" fill="none" xmlns="http://www.w3.org/2000/svg">
<path d="M23.0208 19.6154C22.3723 19.6251 21.7141 19.6251 21.0656 19.6154C20.9495 19.6154 20.9204 19.6541 20.9107 19.7604C20.9011 20.0118 20.8817 20.2631 20.8624 20.5048C20.8043 21.1429 20.6881 21.7616 20.4074 22.3417C20.2235 22.7284 19.9912 23.0667 19.4782 23.0667C15.5776 23.0571 11.6769 23.0667 7.77618 23.0667C7.71811 23.0667 7.64068 23.1054 7.5826 23.0184C8.59891 21.81 9.61522 20.6015 10.6218 19.3931C11.6285 18.1943 12.6254 16.9955 13.6321 15.7967C14.358 14.9363 15.0839 14.0759 15.8195 13.2252C15.9163 13.1091 15.8486 13.0415 15.7808 12.9641C15.4808 12.5968 15.1807 12.2197 14.8807 11.8524C13.1287 9.67716 11.3671 7.50196 9.61522 5.32675C9.50875 5.20107 9.41195 5.06573 9.28613 4.90138C9.37324 4.90138 9.41195 4.90138 9.46035 4.90138C13.2642 4.90138 17.0778 4.90138 20.8817 4.89171C21.085 4.89171 21.114 4.95939 21.114 5.14307C21.1043 6.67055 21.114 8.20769 21.1043 9.73517C21.1043 9.96719 21.1721 10.0155 21.3947 10.0155C21.898 9.99619 22.411 10.0059 22.9143 10.0155C23.1273 10.0252 23.1853 9.96719 23.1853 9.74483C23.1757 7.44395 23.1757 5.1334 23.1757 2.83252C15.7808 2.83252 8.38597 2.83252 0.991124 2.83252C0.991124 3.29656 0.991124 3.76061 0.981445 4.22465C0.981445 4.36966 1.02016 4.48567 1.11695 4.59202C3.29475 7.28927 5.47256 9.99619 7.65036 12.7031C8.32789 13.5442 9.01511 14.3853 9.70233 15.2167C9.92495 15.497 10.1379 15.7967 10.3799 16.0578C10.5251 16.2221 10.5154 16.3188 10.3799 16.4831C9.08286 18.0203 7.78586 19.5574 6.49854 21.0946C4.74662 23.1731 3.00438 25.2516 1.25246 27.3205C1.05888 27.5622 0.981445 27.7749 0.991124 28.0649C1.01048 28.4709 1.0008 28.877 1.0008 29.2733C8.39565 29.2733 15.7905 29.2733 23.1853 29.2733C23.1853 27.5042 23.1853 25.7253 23.1853 23.9562C23.1853 22.593 23.1853 21.2202 23.1853 19.8571C23.1757 19.7411 23.2241 19.6154 23.0208 19.6154ZM8.38597 10.3152C6.99218 8.58472 5.5887 6.85423 4.19491 5.12373C4.14652 5.06573 4.1078 5.00772 4.03037 4.91105C4.87245 4.91105 5.65646 4.92072 6.43079 4.90138C6.62437 4.90138 6.7018 5.00772 6.79859 5.1334C7.88265 6.47719 8.96672 7.82099 10.0508 9.16478C11.0574 10.4119 12.0544 11.6493 13.061 12.8868C13.1965 13.0511 13.2062 13.1478 13.061 13.3122C12.7222 13.6892 12.3931 14.0759 12.0834 14.4723C11.9382 14.656 11.8705 14.6656 11.7156 14.4723C10.6122 13.0801 9.49907 11.6977 8.38597 10.3152ZM20.9107 27.2045C20.2622 27.2045 19.6041 27.2045 18.9556 27.2045C14.087 27.2045 9.22805 27.2045 4.35946 27.2045C4.28202 27.2045 4.21427 27.2045 4.08844 27.2045C4.62079 26.5664 5.13379 25.9864 5.5887 25.3773C5.75325 25.1549 5.92747 25.1453 6.15009 25.1453C10.3411 25.1453 14.5419 25.1453 18.7329 25.1453C19.546 25.1453 20.3687 25.2033 21.1237 24.6522C21.1237 25.503 21.1237 26.3054 21.1237 27.0981C21.114 27.2625 20.9882 27.2045 20.9107 27.2045Z" fill="url(#paint0_linear)"/>
<defs>
<linearGradient id="paint0_linear" x1="12.0899" y1="29.2726" x2="12.0899" y2="2.84084" gradientUnits="userSpaceOnUse">
<stop stop-color="#08AEE8"/>
<stop offset="0.9947" stop-color="#23E6A7"/>
</linearGradient>
</defs>
</svg>
