<svg width="44" height="32" viewBox="0 0 44 32" fill="none" xmlns="http://www.w3.org/2000/svg">
<path d="M17.504 28.9437C16.8749 28.9437 16.236 28.9437 15.6069 28.9437C15.5779 28.8857 15.5198 28.9147 15.4811 28.905C13.9808 28.8374 12.4902 28.6537 11.0287 28.296C8.87993 27.7739 6.84732 26.9522 5.06636 25.6181C1.81418 23.1818 0.207448 19.9625 0.51718 15.8635C0.681724 13.6883 1.51413 11.7741 2.89824 10.1016C4.29203 8.41945 6.05363 7.24 8.04752 6.38926C10.235 5.4515 12.529 4.97779 14.8907 4.83278C17.3201 4.6781 19.7302 4.82311 22.1113 5.3935C24.202 5.89621 26.1668 6.66962 27.9187 7.9264C31.2774 10.3336 32.9809 13.5626 32.7002 17.7487C32.5937 19.4018 32.0807 20.939 31.2096 22.3504C29.9997 24.3129 28.2962 25.7437 26.2636 26.7975C23.7858 28.0833 21.1337 28.6827 18.3655 28.876C18.0848 28.8954 17.7847 28.876 17.504 28.9437Z" fill="#7B0099"/>
<path d="M35.972 4.25254C36.6012 4.32988 37.2109 4.40722 37.811 4.48456C38.9919 4.62958 40.1727 4.78426 41.3536 4.92927C41.9537 5.00661 42.5538 5.08395 43.1636 5.15163C43.2797 5.16129 43.3378 5.18063 43.2991 5.33531C41.915 10.8265 40.5406 16.3177 39.1661 21.8088C39.1274 21.9635 39.0596 21.9829 38.9241 21.9635C37.9659 21.8379 37.0077 21.7218 36.0494 21.6155C35.8849 21.5962 35.8946 21.5092 35.8946 21.4028C35.8946 19.0246 35.8849 16.656 35.8849 14.2778C35.8752 11.0005 35.8752 7.71353 35.8752 4.43623C35.8655 4.35889 35.8075 4.22354 35.972 4.25254Z" fill="#7B0099"/>
<path d="M38.8175 28.4504C37.4237 28.2764 36.059 28.1121 34.6845 27.9477C34.5684 27.938 34.5684 27.8897 34.5781 27.793C34.6845 26.9423 34.7813 26.0915 34.8878 25.2408C34.9265 24.8831 34.9749 24.535 35.0136 24.1773C35.0233 24.071 35.0523 24.0323 35.1685 24.0517C36.3687 24.2063 37.5689 24.3514 38.7595 24.4964C38.924 24.5157 39.0885 24.5447 39.2531 24.5544C39.3789 24.564 39.4273 24.6027 39.408 24.7381C39.3208 25.4341 39.2337 26.1302 39.1466 26.8263C39.0885 27.3193 39.0208 27.8027 38.9627 28.2957C38.9627 28.4117 38.953 28.5181 38.8175 28.4504Z" fill="#7B0099"/>
<path d="M17.7167 17.8353C18.3458 17.2262 19.0427 16.7042 19.7106 16.1434C20.2236 15.7084 20.7462 15.283 21.2011 14.7803C21.3367 14.6353 21.4625 14.471 21.5496 14.2873C21.5786 14.2099 21.5689 14.1906 21.4818 14.1713C20.7172 14.0456 19.9622 13.9199 19.1879 13.8522C19.0814 13.8426 19.033 13.8232 19.0137 13.7072C18.9846 13.4849 18.9362 13.2625 18.8878 13.0402C18.8491 12.8661 18.9749 12.8951 19.0717 12.8951C20.0396 12.8951 20.9979 12.8951 21.9658 12.8951C23.3983 12.9048 24.8405 12.9145 26.273 12.9241C26.544 12.9241 26.8053 12.9241 27.0764 12.9241C27.086 12.9435 27.0957 12.9628 27.0957 12.9822C26.9021 13.2528 26.7086 13.5332 26.515 13.8039C26.4956 13.8232 26.4569 13.8329 26.4182 13.8426C25.6923 13.9586 24.976 14.1326 24.2597 14.2776C24.1049 14.3066 23.9694 14.4033 23.8339 14.5C22.1497 15.6601 20.543 16.9169 19.0911 18.367C19.0717 18.3863 19.0524 18.4153 19.033 18.4347C18.6555 18.773 18.52 19.1984 18.52 19.6914C18.52 20.2522 18.4523 20.8226 18.491 21.3833C18.52 21.8376 18.6071 22.292 18.6652 22.7464C18.6846 22.8527 18.7523 22.8237 18.8104 22.8237C19.546 22.8817 20.2913 22.8527 21.0269 22.8624C21.2108 22.8624 21.3947 22.8624 21.5786 22.8914C21.6561 22.9011 21.6754 22.9204 21.6754 22.9978C21.6561 23.2491 21.6464 23.5005 21.6367 23.7422C21.6367 23.8485 21.5786 23.8292 21.5109 23.8292C19.6234 23.8098 17.736 23.8098 15.8486 23.8292C14.7452 23.8388 13.6321 23.8872 12.5286 23.8872C12.3254 23.8872 12.3254 23.8872 12.3641 23.6745C12.4028 23.5005 12.4319 23.3265 12.4512 23.1524C12.4706 23.0268 12.5093 22.9688 12.6545 22.9688C13.0029 22.9784 13.3611 22.9688 13.7095 22.9591C14.058 22.9494 14.3967 22.9204 14.7355 22.8527C15.2388 22.7464 15.384 22.582 15.384 22.06C15.384 21.3833 15.3743 20.7065 15.3646 20.0201C15.3646 19.7591 15.355 19.4981 15.3259 19.2371C15.3066 19.0921 15.2678 18.9664 15.1807 18.8407C14.5806 17.9513 13.9128 17.1199 13.2449 16.2788C12.3447 15.167 11.4349 14.0649 10.4573 13.0305C10.4283 13.0015 10.3992 12.9725 10.3702 12.9435C10.0508 12.4988 9.5862 12.3634 9.06353 12.3151C8.45374 12.2571 7.84396 12.1507 7.22449 12.0734C7.08899 12.0541 7.05995 12.0057 7.05995 11.88C7.06963 11.706 7.05995 11.5223 7.05027 11.3483C7.04059 11.2517 7.07931 11.2227 7.1761 11.213C7.70845 11.155 8.23112 11.184 8.76347 11.2033C10.0798 11.2517 11.3962 11.184 12.7126 11.1743C13.9321 11.1743 15.1517 11.1743 16.3713 11.213C16.5745 11.2227 16.5842 11.2323 16.5455 11.4353C16.5261 11.561 16.4874 11.677 16.4874 11.8027C16.4874 11.9284 16.4293 11.9671 16.3229 11.9767C15.9454 12.0057 15.5679 12.0347 15.1807 12.0734C14.6774 12.1121 14.1741 12.1411 13.6708 12.2087C13.5062 12.2281 13.5353 12.2764 13.603 12.3731C14.1741 13.2142 14.7936 14.0262 15.4033 14.8383C16.1486 15.8148 16.923 16.7815 17.6489 17.7773C17.6779 17.7966 17.6973 17.8159 17.7167 17.8353Z" fill="#FDFDFE"/>
</svg>
