<svg width="32" height="32" viewBox="0 0 32 32" fill="none" xmlns="http://www.w3.org/2000/svg">
<path d="M28.9167 9.20537C28.9167 13.3976 28.9167 17.5819 28.9167 21.7741C28.9086 21.7978 28.8922 21.8295 28.8922 21.8532C28.8596 22.1538 28.7207 22.399 28.5002 22.5967C28.2307 22.8419 27.9122 22.9289 27.5447 22.9289C24.425 22.9289 21.3053 22.9289 18.1856 22.9289C18.0141 22.9289 18.0141 22.9289 18.0141 23.095C18.0141 24.8589 18.0141 26.6307 18.0141 28.3946C18.0141 28.4421 18.0223 28.4895 18.0223 28.537C18.0141 28.537 18.006 28.537 17.9978 28.537C17.9815 28.5291 17.9651 28.5133 17.9488 28.5133C17.7691 28.4816 17.5976 28.45 17.418 28.4263C16.5931 28.2839 15.7601 28.1494 14.9353 28.007C14.0614 27.8568 13.1876 27.7065 12.3219 27.5562C11.4889 27.4138 10.6559 27.2793 9.8229 27.137C9.07156 27.0104 8.32838 26.8759 7.57704 26.7494C6.7032 26.5991 5.82935 26.4567 4.95551 26.3064C4.0245 26.1482 3.10167 25.99 2.17066 25.8318C2.01549 25.8081 2.01548 25.8081 2.01548 25.6499C2.01548 18.887 2.01548 12.1241 2.01548 5.35329C2.01548 5.13972 1.98281 5.18718 2.19515 5.14763C2.85665 5.02898 3.52634 4.91824 4.18784 4.80751C4.89018 4.68886 5.58435 4.57021 6.28669 4.45156C7.03803 4.32501 7.78121 4.19845 8.53255 4.07189C9.32472 3.93743 10.1087 3.80296 10.9009 3.66849C11.6931 3.53402 12.4771 3.39956 13.2693 3.26509C13.9716 3.14644 14.6658 3.0278 15.3681 2.90124C16.2011 2.75886 17.0341 2.62439 17.8671 2.48202C18.0141 2.45829 18.0141 2.45038 18.0141 2.60066C18.0141 4.34874 18.0141 6.09681 18.0141 7.85279C18.0141 8.04263 18.0141 8.04263 18.2183 8.04263C21.3053 8.04263 24.3924 8.04263 27.4794 8.04263C27.5611 8.04263 27.6346 8.04263 27.7162 8.05054C28.2797 8.07427 28.7452 8.45394 28.8759 8.99181C28.8841 9.063 28.9004 9.13418 28.9167 9.20537ZM27.6509 11.523C27.5937 11.5625 27.5692 11.5862 27.5447 11.6021C27.1446 11.9659 26.7444 12.3298 26.3442 12.6936C24.817 14.0857 23.2817 15.4858 21.7545 16.8779C21.436 17.1706 21.0685 17.1548 20.75 16.8621C19.8762 16.0632 18.9941 15.2643 18.1203 14.4654C18.0958 14.4417 18.0631 14.4259 18.0141 14.3863C18.0141 14.4496 18.0141 14.4891 18.0141 14.5287C18.0141 16.87 18.0141 19.2113 18.0141 21.5526C18.0141 21.7029 18.0141 21.7029 18.1693 21.7029C21.2808 21.7029 24.3924 21.7029 27.512 21.7029C27.659 21.7029 27.6591 21.7029 27.6591 21.5605C27.6591 18.2621 27.6591 14.9558 27.6591 11.6574C27.6509 11.6258 27.6509 11.5941 27.6509 11.523ZM14.2166 15.0428C14.1921 14.7185 14.1676 14.3863 14.1268 14.062C14.0614 13.4213 13.8899 12.8043 13.5878 12.2269C12.8772 10.8743 11.8156 10.0043 10.1904 9.88562C9.55339 9.83816 8.94089 9.90935 8.33655 10.1071C7.22588 10.463 6.45002 11.1907 5.91101 12.1795C5.47001 12.9942 5.26584 13.8722 5.20051 14.7818C5.15151 15.5174 5.20051 16.2451 5.38018 16.9649C5.64968 18.0644 6.22135 18.9819 7.16053 19.6701C7.77304 20.113 8.46721 20.3582 9.22672 20.4294C9.77389 20.4769 10.3129 20.469 10.8437 20.3266C12.1504 19.9707 13.0488 19.148 13.5959 17.9774C14.0369 17.0519 14.1921 16.0632 14.2166 15.0428ZM22.8407 9.26074C21.2808 9.26074 19.7128 9.26074 18.153 9.26074C18.0386 9.26074 18.006 9.29238 18.006 9.40312C18.0141 10.4789 18.006 11.5546 18.006 12.6303C18.006 12.7173 18.0305 12.7727 18.0958 12.8281C18.4388 13.1366 18.7818 13.445 19.1167 13.7535C19.7863 14.3626 20.456 14.9716 21.1257 15.5807C21.24 15.6835 21.2727 15.6835 21.387 15.5807C21.4523 15.5253 21.5177 15.462 21.583 15.3988C23.5757 13.5795 25.5684 11.7602 27.5611 9.9489C27.6182 9.89353 27.6509 9.83816 27.6427 9.75906C27.6346 9.64041 27.6427 9.52968 27.6427 9.41103C27.6427 9.26074 27.6427 9.26074 27.4876 9.26074C25.944 9.26074 24.3924 9.26074 22.8407 9.26074Z" fill="#0072C6"/>
<path d="M11.8484 15.2087C11.8321 15.8494 11.7667 16.4822 11.5136 17.0834C11.3012 17.5817 10.9827 18.0009 10.4764 18.254C9.65974 18.6574 8.50823 18.4992 7.87123 17.5659C7.56906 17.1308 7.38124 16.6483 7.31591 16.1263C7.26691 15.7387 7.2424 15.3432 7.25057 14.9477C7.27507 14.1805 7.43841 13.4448 7.88758 12.7962C8.33674 12.1476 8.97373 11.855 9.77407 11.9024C10.4437 11.9499 10.9174 12.2979 11.2686 12.8358C11.5381 13.255 11.6851 13.7059 11.7586 14.1884C11.7994 14.5285 11.8157 14.8686 11.8484 15.2087Z" fill="#0072C6"/>
<path d="M13.5877 12.2268C12.8772 10.8742 11.8155 10.0042 10.1904 9.88551C9.55337 9.83805 8.94087 9.90924 8.33654 10.107C7.22586 10.4629 6.45001 11.1906 5.91101 12.1794C5.47001 12.9941 5.26585 13.8721 5.20051 14.7817C5.15151 15.5173 5.20051 16.245 5.38018 16.9648C5.64968 18.0643 6.22135 18.9818 7.16052 19.67C7.77302 20.1129 8.46719 20.3581 9.2267 20.4293C9.77387 20.4768 10.3129 20.4689 10.8437 20.3265C12.1504 19.9705 13.0487 19.1479 13.5959 17.9773C14.0287 17.0518 14.1839 16.0631 14.2084 15.0506C14.1839 14.7263 14.1594 14.3941 14.1185 14.0698C14.0614 13.4212 13.8899 12.8042 13.5877 12.2268ZM11.5052 17.0835C11.2929 17.5818 10.9744 18.001 10.468 18.2541C9.65136 18.6575 8.49987 18.4993 7.86286 17.566C7.5607 17.1309 7.37286 16.6484 7.30752 16.1264C7.25852 15.7388 7.23402 15.3433 7.24219 14.9478C7.26669 14.1806 7.43002 13.4449 7.87919 12.7963C8.32836 12.1477 8.96537 11.8551 9.76571 11.9025C10.4354 11.95 10.909 12.298 11.2602 12.8359C11.5297 13.2551 11.6767 13.706 11.7502 14.1885C11.7992 14.5207 11.8155 14.8608 11.8482 15.2009C11.8319 15.8495 11.7665 16.4823 11.5052 17.0835Z" fill="white"/>
<path d="M26.3447 12.7014C24.8176 14.0935 23.2822 15.4935 21.755 16.8857C21.4365 17.1783 21.069 17.1625 20.7505 16.8698C19.8767 16.071 18.9946 15.2721 18.1208 14.4732C18.0963 14.4494 18.0636 14.4336 18.0146 14.3941C18.0146 14.4573 18.0146 14.4969 18.0146 14.5364C18.0146 16.8778 18.0146 19.2191 18.0146 21.5604C18.0146 21.7107 18.0146 21.7107 18.1698 21.7107C21.2813 21.7107 24.3929 21.7107 27.5126 21.7107C27.6596 21.7107 27.6596 21.7107 27.6596 21.5683C27.6596 18.2699 27.6596 14.9636 27.6596 11.6652C27.6596 11.6256 27.6596 11.5861 27.6596 11.5149C27.6024 11.5544 27.5779 11.5782 27.5534 11.594C27.1451 11.9658 26.7449 12.3296 26.3447 12.7014Z" fill="white"/>
<path d="M27.6518 9.41078C27.6518 9.2605 27.6518 9.2605 27.4966 9.2605C25.9449 9.2605 24.3932 9.2605 22.8415 9.2605C21.2817 9.2605 19.7137 9.2605 18.1538 9.2605C18.0395 9.2605 18.0068 9.29214 18.0068 9.40287C18.015 10.4786 18.0068 11.5543 18.0068 12.6301C18.0068 12.7171 18.0313 12.7725 18.0967 12.8278C18.4397 13.1363 18.7827 13.4448 19.1175 13.7533C19.7872 14.3623 20.4569 14.9714 21.1265 15.5805C21.2409 15.6833 21.2735 15.6833 21.3879 15.5805C21.4532 15.5251 21.5185 15.4618 21.5839 15.3985C23.5766 13.5793 25.5692 11.76 27.5619 9.94865C27.6191 9.89328 27.6518 9.83792 27.6436 9.75882C27.6436 9.64808 27.6518 9.52943 27.6518 9.41078Z" fill="white"/>
</svg>
