<svg width="33" height="32" viewBox="0 0 33 32" fill="none" xmlns="http://www.w3.org/2000/svg">
<path d="M30.0859 4.45612C30.1149 4.45612 30.1439 4.44645 30.173 4.44645C30.1826 4.44645 30.1923 4.43679 30.2117 4.43679C30.7247 4.40778 31.199 4.53346 31.6055 4.86216C32.1088 5.2682 32.3798 5.79025 32.3798 6.43797C32.3798 6.51531 32.3798 6.58299 32.3798 6.66033C32.3701 6.67 32.3605 6.68933 32.3605 6.699C32.2927 7.25972 32.0314 7.71409 31.5764 8.05246C31.257 8.29415 30.9279 8.52617 30.6085 8.75819C29.9987 9.2029 29.3793 9.64761 28.7695 10.102C28.634 10.1987 28.4888 10.2857 28.3726 10.4017C28.3242 10.392 28.3049 10.4307 28.2662 10.45C26.9789 11.3878 25.6915 12.3255 24.4042 13.2633C23.8622 13.6596 23.3202 14.056 22.7781 14.4524C22.2458 14.8391 21.7038 15.2258 21.1714 15.6222C19.584 16.7823 17.987 17.9424 16.3996 19.0928C16.3319 19.1412 16.2931 19.1412 16.2254 19.0928C14.4638 17.807 12.7022 16.5309 10.9406 15.2451C8.74345 13.65 6.54629 12.0452 4.34913 10.45C4.3201 10.4307 4.29106 10.4017 4.25234 10.4113C4.22331 10.3823 4.20395 10.3533 4.17492 10.3243C3.88454 10.1117 3.59417 9.90863 3.3038 9.69595C2.73273 9.28024 2.16166 8.86453 1.59059 8.44883C1.45508 8.35215 1.31958 8.25548 1.1744 8.14913C1.18408 8.21681 1.22279 8.24581 1.25182 8.26515C1.82289 8.82586 2.38428 9.41559 2.97471 9.96664C3.26508 10.2373 3.54578 10.5274 3.82647 10.8077C3.97166 10.9527 4.11684 11.0881 4.26203 11.2331C4.26203 11.2718 4.26203 11.3104 4.26203 11.3491C4.26203 17.024 4.26203 22.6892 4.26203 28.364C4.26203 28.4124 4.26203 28.4607 4.27171 28.509C4.27171 28.5187 4.27171 28.5187 4.27171 28.5284C3.54578 28.5187 2.81017 28.5477 2.08423 28.509C1.19376 28.4607 0.380706 27.6873 0.274236 26.7979C0.264557 26.6722 0.254883 26.5562 0.254883 26.4305C0.254883 19.7599 0.254883 13.0893 0.254883 6.42831C0.254883 5.45188 0.980813 4.6108 1.91001 4.45612C2.12295 4.41745 2.33588 4.41745 2.54882 4.44645C2.87791 4.51413 3.18764 4.63014 3.46834 4.83316C4.98796 5.93526 6.4979 7.03736 8.01751 8.14913C10.7567 10.1407 13.5056 12.1418 16.2448 14.143C16.3125 14.1914 16.3512 14.1914 16.419 14.143C17.1449 13.6113 17.8612 13.0893 18.5871 12.5575C21.9651 10.102 25.3431 7.63675 28.7211 5.18119C29.1276 4.87183 29.5342 4.53346 30.0859 4.45612Z" fill="#DA4F43"/>
<path d="M30.0857 4.45558C29.534 4.53292 29.1275 4.87128 28.7016 5.18064C25.3236 7.63621 21.9456 10.1014 18.5676 12.557C17.8416 13.079 17.1157 13.6108 16.3994 14.1425C16.3317 14.1908 16.293 14.1908 16.2252 14.1425C13.486 12.1413 10.7372 10.1498 7.99799 8.14859C6.47837 7.04648 4.96843 5.94438 3.44881 4.83261C3.16812 4.62959 2.86807 4.51358 2.5293 4.44591C2.56801 4.39757 2.62609 4.41691 2.67448 4.41691C6.50741 4.41691 10.3403 4.41691 14.1732 4.41691C19.429 4.41691 24.6944 4.41691 29.9502 4.41691C29.9889 4.43624 30.047 4.41691 30.0857 4.45558Z" fill="#EEEEEE"/>
<path d="M22.7773 14.4519C23.3194 14.0555 23.8614 13.6592 24.4034 13.2628C25.6907 12.325 26.9781 11.3873 28.2654 10.4495C28.2944 10.4302 28.3234 10.3915 28.3718 10.4012C28.3718 10.4495 28.3718 10.4979 28.3718 10.5365C28.3718 16.4821 28.3718 22.418 28.3718 28.3635C28.3718 28.4119 28.3718 28.4602 28.3718 28.5085C28.3428 28.5279 28.3041 28.5279 28.2654 28.5279C26.4554 28.5279 24.6357 28.5279 22.8257 28.5279C22.8161 28.5279 22.7967 28.5279 22.787 28.5279C22.7773 23.8488 22.7773 19.1503 22.7773 14.4519Z" fill="#DFDFDF"/>
<path d="M22.7787 14.452C22.7787 19.1505 22.7787 23.8393 22.7787 28.5377C22.4109 28.5377 22.0528 28.5377 21.685 28.5377C21.685 28.4797 21.6366 28.4604 21.6076 28.4314C19.1297 25.9468 16.6422 23.4719 14.1643 20.9873C14.1353 20.9583 14.0965 20.9293 14.0578 20.8906C14.0385 20.794 13.9514 20.7746 13.8933 20.7166C13.1673 20.0012 12.4511 19.2665 11.7155 18.5511C10.9605 17.826 10.2346 17.0623 9.47958 16.3372C8.75365 15.6412 8.05675 14.9064 7.33082 14.2104C6.39194 13.3016 5.48209 12.3639 4.54322 11.4551C4.47546 11.3874 4.40771 11.3198 4.33996 11.2521C4.31092 11.2231 4.29156 11.1941 4.25284 11.1844C4.25284 10.9234 4.25284 10.6624 4.24316 10.4013C4.28188 10.3917 4.31092 10.4207 4.33996 10.44C6.53712 12.0352 8.73429 13.64 10.9315 15.2351C12.6931 16.5209 14.4547 17.797 16.2163 19.0828C16.284 19.1311 16.3228 19.1311 16.3905 19.0828C17.9779 17.9227 19.5749 16.7626 21.1623 15.6122C21.7043 15.2351 22.2464 14.8484 22.7787 14.452Z" fill="#DCDCDC"/>
<path d="M28.3633 28.5181C28.3633 28.4698 28.3633 28.4215 28.3633 28.3731C28.3633 22.4276 28.3633 16.4917 28.3633 10.5461C28.3633 10.4978 28.3633 10.4495 28.3633 10.4108C28.4794 10.2948 28.6246 10.2078 28.7601 10.1111C29.3699 9.66638 29.9894 9.212 30.5991 8.7673C30.9282 8.53527 31.2476 8.30325 31.5671 8.06156C32.0123 7.7232 32.2833 7.26882 32.3511 6.7081C32.3511 6.69844 32.3607 6.6791 32.3704 6.66943C32.3704 6.7081 32.3704 6.74677 32.3704 6.78544C32.3704 13.3594 32.3704 19.9333 32.3704 26.4976C32.3704 27.474 31.7316 28.2765 30.7831 28.4891C30.6282 28.5278 30.483 28.5375 30.3281 28.5375C29.699 28.5375 29.0602 28.5375 28.431 28.5375C28.4117 28.5278 28.3923 28.5278 28.3633 28.5181Z" fill="#B53524"/>
<path d="M14.0578 20.9001C14.0965 20.9291 14.1256 20.9582 14.1643 20.9968C16.6422 23.4814 19.1297 25.9563 21.6076 28.4409C21.6366 28.4699 21.685 28.4989 21.685 28.5472C21.6463 28.5472 21.6076 28.5472 21.5689 28.5472C15.8485 28.5472 10.1281 28.5472 4.40772 28.5472C4.34964 28.5472 4.30124 28.5472 4.24316 28.5375C4.24316 28.5279 4.24316 28.5279 4.24316 28.5182C4.47546 28.3732 4.67873 28.1895 4.89167 28.0252C5.59825 27.4741 6.30483 26.923 7.02109 26.372C7.53408 25.9756 8.04707 25.5793 8.56006 25.1732C9.26664 24.6222 9.97322 24.0711 10.6895 23.5201C11.2218 23.1044 11.7639 22.6886 12.2962 22.2729C12.7415 21.9249 13.1867 21.5865 13.6319 21.2385C13.7771 21.1322 13.932 21.0258 14.0578 20.9001Z" fill="#EEEEEE"/>
<path d="M30.2027 4.43604C30.1928 4.43604 30.1829 4.44589 30.1631 4.44589C30.1829 4.44589 30.1928 4.44589 30.2027 4.43604Z" fill="#EEEEEE"/>
<path d="M14.0578 20.8999C13.932 21.0353 13.7771 21.132 13.6416 21.2383C13.1964 21.5863 12.7511 21.9344 12.3059 22.2727C11.7735 22.6884 11.2315 23.1041 10.6991 23.5199C9.99257 24.0709 9.286 24.622 8.56974 25.173C8.05675 25.5694 7.54375 25.9657 7.03076 26.3718C6.32418 26.9228 5.6176 27.4739 4.90135 28.0249C4.68841 28.1893 4.47546 28.373 4.25284 28.518C4.25284 28.4696 4.24316 28.4213 4.24316 28.373C4.24316 22.6981 4.24316 17.0329 4.24316 11.3581C4.24316 11.3194 4.24316 11.2807 4.24316 11.242C4.24316 11.2324 4.25284 11.213 4.25284 11.2034C4.29156 11.213 4.31092 11.242 4.33996 11.271C4.40771 11.3387 4.47546 11.4064 4.54321 11.4741C5.48209 12.3828 6.39193 13.3206 7.33081 14.2293C8.05674 14.9351 8.75364 15.6601 9.47957 16.3562C10.2345 17.0813 10.9605 17.845 11.7155 18.5701C12.4511 19.2758 13.1673 20.0105 13.8933 20.7356C13.9513 20.7839 14.0481 20.8033 14.0578 20.8999Z" fill="#DFDFDF"/>
<path d="M4.25263 11.194C4.25263 11.2036 4.24295 11.223 4.24295 11.2326C4.09776 11.0876 3.95257 10.9523 3.80739 10.8073C3.52669 10.5269 3.246 10.2369 2.95562 9.96618C2.36519 9.41513 1.81347 8.82541 1.23271 8.26469C1.20367 8.23569 1.16495 8.21635 1.15527 8.14868C1.30046 8.25502 1.43598 8.3517 1.57149 8.44838C2.14256 8.86408 2.71363 9.27979 3.2847 9.69549C3.57508 9.90818 3.86546 10.1112 4.15584 10.3239C4.18487 10.3432 4.21392 10.3819 4.23327 10.4109C4.25263 10.6719 4.25263 10.9329 4.25263 11.194Z" fill="#B53524"/>
</svg>
