<svg width="32" height="32" viewBox="0 0 32 32" fill="none" xmlns="http://www.w3.org/2000/svg">
<path d="M15.9567 29.8474C23.8849 29.8474 30.3042 23.4204 30.2947 15.4923C30.2853 7.5642 23.8506 1.13721 15.9225 1.13721C7.99439 1.13721 1.57505 7.5642 1.58451 15.4923C1.59397 23.4204 8.02864 29.8474 15.9567 29.8474Z" fill="#FEFEFE"/>
<path d="M16 1.45437C19.6343 1.45437 23.0469 2.9187 25.6208 5.56844C28.1851 8.21819 29.6022 11.7545 29.6022 15.51C29.6022 19.2654 28.1851 22.7918 25.6208 25.4515C23.0565 28.1012 19.6343 29.5656 16 29.5656C12.3657 29.5656 8.95309 28.1012 6.37918 25.4515C3.80527 22.8017 2.39782 19.2654 2.39782 15.51C2.39782 11.7545 3.81492 8.22815 6.37918 5.56844C8.95309 2.90874 12.3657 1.45437 16 1.45437ZM16 0C7.71916 0 1 6.94312 1 15.5C1 24.0569 7.71916 31 16 31C24.2809 31 31 24.0569 31 15.5C31 6.94312 24.2809 0 16 0Z" fill="#D2D2D2"/>
<path d="M17.7528 21.3C17.7528 22.8241 17.7528 24.3481 17.7528 25.8623C17.7528 25.9803 17.7257 26 17.6264 26C16.5429 26 15.4594 26 14.3758 26C14.2765 26 14.2404 25.9803 14.2404 25.8525C14.2404 22.8044 14.2404 19.7662 14.2404 16.7181C14.2404 16.6296 14.2133 16.5607 14.1591 16.4919C11.8025 13.9256 9.43681 11.3495 7.08016 8.78319C6.97181 8.6652 6.97182 8.6652 7.0892 8.55704C7.18852 8.45872 7.28785 8.35056 7.38717 8.2424C8.02825 7.55412 8.6603 6.85601 9.30138 6.16773C9.35556 6.10874 9.40069 5.99075 9.47293 6.00058C9.53613 6.01041 9.59031 6.10874 9.65351 6.16773C11.7393 8.43905 13.8251 10.7104 15.9108 12.9915C15.9921 13.08 16.0282 13.08 16.1095 12.9915C18.2223 10.6907 20.3352 8.38006 22.448 6.07924C22.5203 6.00058 22.5564 5.99075 22.6376 6.07924C23.4051 6.92484 24.1726 7.76061 24.9492 8.59637C25.0214 8.67503 25.0124 8.70453 24.9492 8.78319C22.5925 11.3495 20.2268 13.9256 17.8702 16.4919C17.807 16.5607 17.7799 16.6296 17.7799 16.7377C17.7528 18.2519 17.7528 19.776 17.7528 21.3Z" fill="#FE0000"/>
</svg>
