<svg width="32" height="32" viewBox="0 0 32 32" fill="none" xmlns="http://www.w3.org/2000/svg">
<path d="M15.925 31.5347C24.2428 31.5347 30.9857 24.7998 30.9857 16.492C30.9857 8.18408 24.2428 1.44922 15.925 1.44922C7.60716 1.44922 0.864258 8.18408 0.864258 16.492C0.864258 24.7998 7.60716 31.5347 15.925 31.5347Z" fill="#015FF8"/>
<path d="M18.9738 19.5375C18.4221 20.0595 17.793 20.4462 17.0477 20.6396C14.6763 21.2776 12.2081 19.7791 11.7145 17.4009C11.2112 14.984 12.8082 12.6348 15.2377 12.2384C17.8704 11.8131 20.1934 13.8046 20.2418 16.5212C20.2515 16.9562 20.2418 17.4009 20.2418 17.836C20.2515 18.503 20.5709 18.9284 21.1226 19.0251C21.7033 19.1314 22.2066 18.8317 22.4389 18.2323C22.6809 17.6039 22.7196 16.9369 22.7003 16.2698C22.5744 13.2922 20.6289 10.8173 17.7639 9.9859C13.931 8.87413 9.85609 11.465 9.24631 15.4094C8.66556 19.1701 11.2112 22.6407 14.957 23.1821C16.525 23.4045 18.0059 23.1145 19.361 22.3024C19.5642 22.1864 19.6513 22.2154 19.7869 22.3797C20.0385 22.6988 20.3095 23.0081 20.5902 23.3078C20.7354 23.4625 20.7064 23.5302 20.5322 23.6365C18.7899 24.7386 16.8831 25.2027 14.8408 24.903C11.5693 24.4389 9.24631 22.6504 8.00739 19.6051C6.03285 14.7423 8.98498 9.28016 14.1149 8.17806C18.9157 7.14363 23.6101 10.3726 24.3457 15.2451C24.5103 16.3375 24.4812 17.4299 24.1908 18.503C23.6779 20.3785 21.742 21.326 20.0869 20.5139C19.6707 20.3109 19.419 20.0885 18.9738 19.5375ZM15.9152 19.0347C17.3284 19.0444 18.4899 17.9036 18.4899 16.5018C18.4995 15.0904 17.3477 13.9399 15.9346 13.9399C14.5214 13.9303 13.3696 15.071 13.3599 16.4825C13.3599 17.8843 14.5021 19.0347 15.9152 19.0347Z" fill="#FC9D02"/>
</svg>
