<svg width="32" height="32" viewBox="0 0 32 32" fill="none" xmlns="http://www.w3.org/2000/svg">
<path d="M24.6876 32H7.32196C3.27763 32 0 28.7224 0 24.6876V7.32195C0 3.27763 3.27763 0 7.32196 0H24.6876C28.732 0 32.0096 3.27763 32.0096 7.32195V24.6876C32 28.7224 28.7224 32 24.6876 32Z" fill="url(#paint0_linear)"/>
<path d="M5.47222 22.9243C5.45305 22.9148 5.43388 22.8956 5.41472 22.8764C5.35722 22.7902 5.28055 22.7423 5.18471 22.7039C5.11762 22.6368 5.06012 22.5793 4.99303 22.5122C4.94512 22.4547 4.8972 22.4068 4.84928 22.3493C3.53631 20.9405 3.20088 19.3017 3.74715 17.4904C4.15925 16.1199 5.08887 15.1615 6.39226 14.5674C6.52643 14.5003 6.67018 14.4715 6.68935 14.2607C6.75644 13.5227 7.09187 12.8998 7.55188 12.3343C7.61897 12.2768 7.67647 12.2289 7.74356 12.1714C8.82652 11.1747 10.0724 10.9447 11.4525 11.4335C11.6729 11.5102 11.9221 11.7402 12.0754 11.6922C12.2479 11.6252 12.3246 11.3185 12.4683 11.1172C14.0305 8.8938 16.1389 7.83959 18.8798 8.1846C20.5282 8.39544 21.8699 9.16214 22.9625 10.408C23.71 11.261 24.1604 12.2577 24.4288 13.3502C24.4671 13.839 24.5821 14.3182 24.5438 14.8069C24.5342 14.9699 24.63 14.989 24.7642 15.0082C26.7768 15.3532 28.2814 16.9249 28.4827 19.0717C28.6169 20.4805 28.0418 21.6689 27.0547 22.6752C26.9589 22.7135 26.9014 22.7806 26.8535 22.8573C26.7768 22.9148 26.6905 22.9723 26.6139 23.0298C26.5851 23.0298 26.5755 23.0489 26.566 23.0777C26.4222 23.1352 26.288 23.2023 26.1826 23.3173H26.1539L26.1347 23.3269C26.1059 23.346 26.0676 23.3652 26.0389 23.3844C25.9143 23.3939 25.8184 23.4706 25.713 23.5281C25.6172 23.5569 25.5213 23.5856 25.4351 23.6144C24.8121 23.7965 24.1892 23.8731 23.5375 23.8731C18.554 23.8636 13.5705 23.8731 8.58692 23.8731C8.27066 23.8731 7.94482 23.8348 7.62855 23.8156C7.34104 23.7485 7.05353 23.6719 6.76602 23.6048L6.74685 23.5952L6.72768 23.6048C6.45934 23.4802 6.18141 23.346 5.91307 23.2214C5.8939 23.2119 5.87474 23.1927 5.85557 23.1831C5.82682 23.1639 5.79807 23.1448 5.76931 23.1256L5.75015 23.116H5.7214C5.63514 23.0394 5.54889 22.9818 5.47222 22.9243ZM11.0787 12.4014C10.8295 12.2577 10.5612 12.2002 10.2832 12.2098C10.2066 12.2098 10.1395 12.2098 10.0628 12.2098C9.50696 12.2193 9.01819 12.4014 8.59651 12.7656C8.55817 12.804 8.51984 12.8423 8.4815 12.8806C8.45275 12.9094 8.41442 12.9477 8.38567 12.9765C7.84898 13.4652 7.65731 14.0786 7.69564 14.7782C7.70522 15.0657 7.66689 15.2095 7.34104 15.2957C5.75973 15.7174 4.60969 17.1358 4.53302 18.6979C4.41801 20.998 6.04724 22.7902 8.32816 22.7998C13.5992 22.8189 18.8702 22.8189 24.1509 22.7902C26.633 22.7806 28.2623 20.0972 27.1506 17.8641C26.4605 16.4841 25.2817 15.8803 23.7675 15.9187C23.5375 15.9282 23.4608 15.8995 23.4992 15.6311C23.6046 14.8549 23.6333 14.069 23.3842 13.3023C23.3746 13.1298 23.3362 12.9573 23.2308 12.8135H23.2404C22.4641 10.7339 20.9882 9.48799 18.8032 9.16214C16.2156 8.76921 13.8867 10.1397 12.8613 12.5644C12.7463 12.8423 12.6888 13.1585 12.4587 13.379C12.1808 13.0915 11.9029 12.804 11.5483 12.6027C11.4045 12.4973 11.2608 12.4206 11.0787 12.4014Z" fill="#FEFEFE"/>
<defs>
<linearGradient id="paint0_linear" x1="16.0019" y1="32.0038" x2="16.0019" y2="0" gradientUnits="userSpaceOnUse">
<stop offset="0.00531915" stop-color="#5FB5F3"/>
<stop offset="1" stop-color="#576CD9"/>
</linearGradient>
</defs>
</svg>
